<svg id="Layer_1" data-name="Layer 1" xmlns="http://www.w3.org/2000/svg" viewBox="0 0 390.24 382.5"><defs><style>.cls-1{fill:#ffffff;}</style></defs><title>winner-bronze</title><path class="cls-1" d="M191,216.28s-21-25.57-70-33.87C73.32,171.29,15.61,124.72.8,59.36-16.35-5.39,12.52-73.1,49.41-104.74c36.65-33.23,71-38.4,70.3-38.85,0.83,1-33.23,6.91-68.94,40.29-36,31.83-63.43,98.65-46,161.67C19.83,122,76.33,166.59,122.48,176.95A160.35,160.35,0,0,1,152,184.37c32.57,11.55,45.09,26.45,45.09,26.45Z" transform="translate(29.79 166.21)"/><path class="cls-1" d="M139.67,216.28s21-25.57,70-33.87c47.69-11.13,105.41-57.69,120.21-123.06C347-5.39,318.16-73.1,281.27-104.74c-36.65-33.23-71-38.4-70.3-38.85-0.83,1,33.23,6.91,68.94,40.29,36,31.83,63.44,98.65,46,161.67C310.85,122,254.35,166.59,208.2,176.95a160.32,160.32,0,0,0-29.55,7.43c-32.57,11.55-45.09,26.45-45.09,26.45Z" transform="translate(29.79 166.21)"/><path class="cls-1" d="M106.88,142s13.36,4.59,17.79,15.25c5.53,13.31,3.14,24.46,3.14,24.46s-13.38-7-17.87-14.18C103.65,157.36,106.88,142,106.88,142Z" transform="translate(29.79 166.21)"/><path class="cls-1" d="M83.44,200.45s13.5,4.15,23.36-1.86c12.31-7.51,16.93-17.93,16.93-17.93s-14.92-2.25-22.79,1C89.89,186.1,83.44,200.45,83.44,200.45Z" transform="translate(29.79 166.21)"/><path class="cls-1" d="M86.09,130.48s12.11,6.71,14.57,17.74c3.07,13.79-1.13,24.14-1.13,24.14s-11.73-9-14.83-16.72C80.36,144.79,86.09,130.48,86.09,130.48Z" transform="translate(29.79 166.21)"/><path class="cls-1" d="M53.51,182.94s12.33,6.3,22.87,2.17a44,44,0,0,0,19.39-14.42s-14-4.71-22.16-3C62.18,170.19,53.51,182.94,53.51,182.94Z" transform="translate(29.79 166.21)"/><path class="cls-1" d="M67.42,115.59s10.54,8.53,11,19.6a43.14,43.14,0,0,1-5.2,23.11s-9.79-10.67-11.46-18.66C59.44,128.43,67.42,115.59,67.42,115.59Z" transform="translate(29.79 166.21)"/><path class="cls-1" d="M27.05,160.68s10.82,8.18,21.69,6A43.18,43.18,0,0,0,69.91,156S57.19,149.12,49,149.42C37.59,149.85,27.05,160.68,27.05,160.68Z" transform="translate(29.79 166.21)"/><path class="cls-1" d="M51.58,97.53s8.72,10,7.32,20.8A42.25,42.25,0,0,1,50,139.74s-7.64-12-7.9-20C41.7,108.56,51.58,97.53,51.58,97.53Z" transform="translate(29.79 166.21)"/><path class="cls-1" d="M4.95,134.17s9.06,9.74,19.92,9.47A42.21,42.21,0,0,0,47.1,137s-11.1-8.85-19-9.95C17,125.51,4.95,134.17,4.95,134.17Z" transform="translate(29.79 166.21)"/><path class="cls-1" d="M39,77s6.72,11.17,3.53,21.32a41.4,41.4,0,0,1-12.28,19.15S24.92,104.67,26,96.9C27.59,86,39,77,39,77Z" transform="translate(29.79 166.21)"/><path class="cls-1" d="M-12.24,104.48S-5.15,115.41,5.37,117A41.41,41.41,0,0,0,28,114.37s-9.21-10.43-16.66-12.84C0.82,98.16-12.24,104.48-12.24,104.48Z" transform="translate(29.79 166.21)"/><path class="cls-1" d="M30.33,54.78S34.91,66.7,30.1,76A40.56,40.56,0,0,1,15,92.35S12,79,14.43,71.74C17.79,61.5,30.33,54.78,30.33,54.78Z" transform="translate(29.79 166.21)"/><path class="cls-1" d="M-23.79,72.54s5,11.76,14.86,15.09a40.6,40.6,0,0,0,22.26,1.31S6.22,77.3-.57,73.7C-10.11,68.66-23.79,72.54-23.79,72.54Z" transform="translate(29.79 166.21)"/><path class="cls-1" d="M25.55,31.45s2.39,12.28-3.81,20.4A39.78,39.78,0,0,1,4.36,65.1s-0.59-13.35,3-20C12.3,35.79,25.55,31.45,25.55,31.45Z" transform="translate(29.79 166.21)"/><path class="cls-1" d="M-29.7,39.38s2.8,12.2,11.77,17.09a39.8,39.8,0,0,0,21.26,5S-1.56,49.08-7.49,44.46C-15.84,38-29.7,39.38-29.7,39.38Z" transform="translate(29.79 166.21)"/><path class="cls-1" d="M24.88,7.5s0.22,12.26-7.16,19a39,39,0,0,1-19,9.83S0.41,23.39,5,17.58C11.36,9.43,24.88,7.5,24.88,7.5Z" transform="translate(29.79 166.21)"/><path class="cls-1" d="M-29.79,5.74s0.62,12.25,8.46,18.5A39,39,0,0,0-1.68,32.73S-4.28,19.9-9.22,14.42C-16.17,6.74-29.79,5.74-29.79,5.74Z" transform="translate(29.79 166.21)"/><path class="cls-1" d="M28.31-17S26.43-5.1,18.15.18a38.14,38.14,0,0,1-20,6.25S2-5.8,7.37-10.62C14.92-17.4,28.31-17,28.31-17Z" transform="translate(29.79 166.21)"/><path class="cls-1" d="M-24.15-28s-1.48,11.93,5,19.3A38.24,38.24,0,0,0-1.62,2.87S-1.95-10-5.79-16.09C-11.18-24.68-24.15-28-24.15-28Z" transform="translate(29.79 166.21)"/><path class="cls-1" d="M36-40.83S32.16-29.69,23.27-26A37.37,37.37,0,0,1,2.88-23.38S8.68-34.53,14.7-38.27C23.15-43.52,36-40.83,36-40.83Z" transform="translate(29.79 166.21)"/><path class="cls-1" d="M-12.78-60.37s-3.45,11.26,1.56,19.47A37.46,37.46,0,0,0,3.72-26.78s1.88-12.43-.78-19C-0.81-55-12.78-60.37-12.78-60.37Z" transform="translate(29.79 166.21)"/><path class="cls-1" d="M47.82-63S42.23-52.86,33-50.81a36.61,36.61,0,0,1-20.12-.94s7.49-9.78,13.94-12.36C35.88-67.74,47.82-63,47.82-63Z" transform="translate(29.79 166.21)"/><path class="cls-1" d="M4.08-90.12S-1.17-79.84,2.27-71.06a36.68,36.68,0,0,0,12,16.17s3.93-11.68,2.47-18.47C14.72-82.9,4.08-90.12,4.08-90.12Z" transform="translate(29.79 166.21)"/><path class="cls-1" d="M63.44-82.67s-7.11,8.79-16.35,9.21a35.94,35.94,0,0,1-19.26-4.33S36.73-86,43.39-87.35C52.74-89.31,63.44-82.67,63.44-82.67Z" transform="translate(29.79 166.21)"/><path class="cls-1" d="M25.85-116.33s-6.81,9-5,18.09a36,36,0,0,0,8.85,17.65S35.49-91.19,35.24-98C34.89-107.54,25.85-116.33,25.85-116.33Z" transform="translate(29.79 166.21)"/><path class="cls-1" d="M82.1-99.18s-8.37,7.28-17.36,6.1a35.23,35.23,0,0,1-17.86-7.46s10-6.36,16.65-6.57C72.89-107.42,82.1-99.18,82.1-99.18Z" transform="translate(29.79 166.21)"/><path class="cls-1" d="M51.54-138.07s-8.13,7.56-7.9,16.61a35.24,35.24,0,0,0,5.54,18.54s7.38-9.26,8.3-15.86C58.77-128.05,51.54-138.07,51.54-138.07Z" transform="translate(29.79 166.21)"/><path class="cls-1" d="M103.22-112.12s-9.32,5.6-17.78,2.94a34.52,34.52,0,0,1-16-10.23s10.72-4.44,17.19-3.51C95.74-121.63,103.22-112.12,103.22-112.12Z" transform="translate(29.79 166.21)"/><path class="cls-1" d="M80.35-154.84s-9.12,5.91-10.45,14.68a34.56,34.56,0,0,0,2.19,18.84s8.7-7.68,10.7-13.89C85.62-143.95,80.35-154.84,80.35-154.84Z" transform="translate(29.79 166.21)"/><path class="cls-1" d="M125.9-121.09s-9.95,3.82-17.66-.19a33.77,33.77,0,0,1-13.67-12.6s11.09-2.46,17.19-.46C120.29-131.54,125.9-121.09,125.9-121.09Z" transform="translate(29.79 166.21)"/><path class="cls-1" d="M111.1-166.21s-9.81,4.15-12.58,12.4a33.88,33.88,0,0,0-1.1,18.55s9.71-5.92,12.7-11.58C114.32-154.8,111.1-166.21,111.1-166.21Z" transform="translate(29.79 166.21)"/><path class="cls-1" d="M111.53-140.81s7.34,4.15,13.85,1.91a26.69,26.69,0,0,0,12.16-8.28s-8.4-3.21-13.4-2.37C117.13-148.34,111.53-140.81,111.53-140.81Z" transform="translate(29.79 166.21)"/><path class="cls-1" d="M223.79,142s-13.36,4.59-17.79,15.25c-5.53,13.31-3.14,24.46-3.14,24.46s13.38-7,17.87-14.18C227,157.36,223.79,142,223.79,142Z" transform="translate(29.79 166.21)"/><path class="cls-1" d="M247.23,200.45s-13.51,4.15-23.36-1.86c-12.3-7.51-16.93-17.93-16.93-17.93s14.92-2.25,22.79,1C240.78,186.1,247.23,200.45,247.23,200.45Z" transform="translate(29.79 166.21)"/><path class="cls-1" d="M244.58,130.48s-12.12,6.71-14.57,17.74c-3.08,13.79,1.13,24.14,1.13,24.14s11.73-9,14.82-16.72C250.31,144.79,244.58,130.48,244.58,130.48Z" transform="translate(29.79 166.21)"/><path class="cls-1" d="M277.15,182.94s-12.33,6.3-22.86,2.17a44,44,0,0,1-19.39-14.42s14-4.71,22.16-3C268.49,170.19,277.15,182.94,277.15,182.94Z" transform="translate(29.79 166.21)"/><path class="cls-1" d="M263.25,115.59s-10.54,8.53-11,19.6a43.11,43.11,0,0,0,5.2,23.11s9.79-10.67,11.46-18.66C271.23,128.43,263.25,115.59,263.25,115.59Z" transform="translate(29.79 166.21)"/><path class="cls-1" d="M303.61,160.68s-10.83,8.18-21.69,6A43.14,43.14,0,0,1,260.76,156s12.73-6.93,20.88-6.63C293.09,149.85,303.61,160.68,303.61,160.68Z" transform="translate(29.79 166.21)"/><path class="cls-1" d="M279.09,97.53s-8.73,10-7.32,20.8a42.2,42.2,0,0,0,8.94,21.42s7.63-12,7.89-20C289,108.56,279.09,97.53,279.09,97.53Z" transform="translate(29.79 166.21)"/><path class="cls-1" d="M325.72,134.17s-9.06,9.74-19.92,9.47A42.24,42.24,0,0,1,283.57,137s11.1-8.85,19-9.95C313.71,125.51,325.72,134.17,325.72,134.17Z" transform="translate(29.79 166.21)"/><path class="cls-1" d="M291.67,77S285,88.21,288.14,98.36a41.4,41.4,0,0,0,12.28,19.15s5.33-12.84,4.22-20.61C303.08,86,291.67,77,291.67,77Z" transform="translate(29.79 166.21)"/><path class="cls-1" d="M342.9,104.48S335.82,115.41,325.3,117a41.42,41.42,0,0,1-22.59-2.63s9.21-10.43,16.67-12.84C329.85,98.16,342.9,104.48,342.9,104.48Z" transform="translate(29.79 166.21)"/><path class="cls-1" d="M300.34,54.78s-4.58,11.92.22,21.18a40.56,40.56,0,0,0,15.1,16.39s3-13.31.57-20.61C312.88,61.5,300.34,54.78,300.34,54.78Z" transform="translate(29.79 166.21)"/><path class="cls-1" d="M354.46,72.54s-5,11.76-14.86,15.09a40.58,40.58,0,0,1-22.25,1.31s7.1-11.64,13.89-15.23C340.78,68.66,354.46,72.54,354.46,72.54Z" transform="translate(29.79 166.21)"/><path class="cls-1" d="M305.12,31.45s-2.39,12.28,3.82,20.4A39.78,39.78,0,0,0,326.31,65.1s0.59-13.35-3-20C318.36,35.79,305.12,31.45,305.12,31.45Z" transform="translate(29.79 166.21)"/><path class="cls-1" d="M360.38,39.38s-2.81,12.2-11.78,17.09a39.8,39.8,0,0,1-21.26,5s4.89-12.44,10.83-17.06C346.51,38,360.38,39.38,360.38,39.38Z" transform="translate(29.79 166.21)"/><path class="cls-1" d="M305.79,7.5s-0.21,12.26,7.17,19a38.94,38.94,0,0,0,19,9.83s-1.7-13-6.26-18.78C319.3,9.43,305.79,7.5,305.79,7.5Z" transform="translate(29.79 166.21)"/><path class="cls-1" d="M360.46,5.74S359.83,18,352,24.24a39,39,0,0,1-19.65,8.49s2.59-12.84,7.53-18.31C346.84,6.74,360.46,5.74,360.46,5.74Z" transform="translate(29.79 166.21)"/><path class="cls-1" d="M302.36-17S304.23-5.1,312.52.18a38.15,38.15,0,0,0,20,6.25s-3.85-12.23-9.24-17.06C315.74-17.4,302.36-17,302.36-17Z" transform="translate(29.79 166.21)"/><path class="cls-1" d="M354.83-28s1.48,11.93-5,19.3A38.24,38.24,0,0,1,332.29,2.87s0.32-12.83,4.16-19C341.85-24.68,354.83-28,354.83-28Z" transform="translate(29.79 166.21)"/><path class="cls-1" d="M294.68-40.83S298.51-29.69,307.4-26a37.37,37.37,0,0,0,20.39,2.62S322-34.53,316-38.27C307.52-43.52,294.68-40.83,294.68-40.83Z" transform="translate(29.79 166.21)"/><path class="cls-1" d="M343.45-60.37s3.45,11.26-1.56,19.47a37.46,37.46,0,0,1-14.94,14.12s-1.88-12.43.79-19C331.48-55,343.45-60.37,343.45-60.37Z" transform="translate(29.79 166.21)"/><path class="cls-1" d="M282.85-63s5.59,10.1,14.79,12.15a36.61,36.61,0,0,0,20.12-.94s-7.5-9.78-13.94-12.36C294.78-67.74,282.85-63,282.85-63Z" transform="translate(29.79 166.21)"/><path class="cls-1" d="M326.58-90.12s5.26,10.28,1.82,19.06a36.68,36.68,0,0,1-12,16.17s-3.93-11.68-2.47-18.47C316-82.9,326.58-90.12,326.58-90.12Z" transform="translate(29.79 166.21)"/><path class="cls-1" d="M267.23-82.67s7.12,8.79,16.35,9.21a35.92,35.92,0,0,0,19.26-4.33s-8.91-8.16-15.56-9.56C277.93-89.31,267.23-82.67,267.23-82.67Z" transform="translate(29.79 166.21)"/><path class="cls-1" d="M304.82-116.33s6.81,9,5,18.09A36,36,0,0,1,301-80.59S295.18-91.19,295.43-98C295.78-107.54,304.82-116.33,304.82-116.33Z" transform="translate(29.79 166.21)"/><path class="cls-1" d="M248.57-99.18s8.37,7.28,17.35,6.1a35.2,35.2,0,0,0,17.86-7.46s-10-6.36-16.65-6.57C257.77-107.42,248.57-99.18,248.57-99.18Z" transform="translate(29.79 166.21)"/><path class="cls-1" d="M279.13-138.07s8.12,7.56,7.9,16.61a35.24,35.24,0,0,1-5.54,18.54s-7.38-9.26-8.29-15.86C271.9-128.05,279.13-138.07,279.13-138.07Z" transform="translate(29.79 166.21)"/><path class="cls-1" d="M227.45-112.12s9.32,5.6,17.78,2.94a34.52,34.52,0,0,0,16-10.23s-10.71-4.44-17.19-3.51C234.93-121.63,227.45-112.12,227.45-112.12Z" transform="translate(29.79 166.21)"/><path class="cls-1" d="M250.32-154.84s9.12,5.91,10.45,14.68a34.52,34.52,0,0,1-2.2,18.84s-8.7-7.68-10.7-13.89C245.05-143.95,250.32-154.84,250.32-154.84Z" transform="translate(29.79 166.21)"/><path class="cls-1" d="M204.77-121.09s9.95,3.82,17.66-.19a33.77,33.77,0,0,0,13.67-12.6s-11.09-2.46-17.18-.46C210.38-131.54,204.77-121.09,204.77-121.09Z" transform="translate(29.79 166.21)"/><path class="cls-1" d="M219.57-166.21s9.82,4.15,12.59,12.4a33.9,33.9,0,0,1,1.09,18.55s-9.71-5.92-12.7-11.58C216.35-154.8,219.57-166.21,219.57-166.21Z" transform="translate(29.79 166.21)"/><path class="cls-1" d="M219.14-140.81s-7.34,4.15-13.85,1.91a26.68,26.68,0,0,1-12.16-8.28s8.4-3.21,13.4-2.37C213.53-148.34,219.14-140.81,219.14-140.81Z" transform="translate(29.79 166.21)"/></svg>
