<?xml version="1.0" encoding="utf-8"?>
<!-- Generator: Adobe Illustrator 19.1.0, SVG Export Plug-In . SVG Version: 6.00 Build 0)  -->
<svg version="1.1" id="Layer_1" xmlns="http://www.w3.org/2000/svg" xmlns:xlink="http://www.w3.org/1999/xlink" x="0px" y="0px"
	 viewBox="0 0 207.1 55.2" style="enable-background:new 0 0 207.1 55.2;" xml:space="preserve">
<style type="text/css">
	.st0{fill:#999999;}
</style>
<g transform="translate(117.3312,26.8632)">
	<path class="st0" d="M24.3-11.8C23.4-6,19-6,14.7-6h-2.4L14-16.8c0.1-0.7,0.7-1.1,1.3-1.1h1.1c2.9,0,5.7,0,7.1,1.7
		C24.3-15.3,24.6-13.8,24.3-11.8 M22.4-26.9H6.3c-1.1,0-2,0.8-2.2,1.9l-6.5,41.3c-0.1,0.8,0.5,1.6,1.3,1.6h8.3
		c0.8,0,1.4-0.6,1.5-1.3l1.8-11.7C10.7,3.8,11.7,3,12.8,3h5.1c10.6,0,16.7-5.1,18.3-15.3c0.7-4.4,0-7.9-2.1-10.4
		C31.9-25.4,27.8-26.9,22.4-26.9"/>
</g>
<g transform="translate(62.0115,26.8632)">
	<path class="st0" d="M-35.3-11.8C-36.2-6-40.6-6-44.9-6h-2.4l1.7-10.8c0.1-0.7,0.7-1.1,1.3-1.1h1.1c2.9,0,5.7,0,7.1,1.7
		C-35.2-15.3-35-13.8-35.3-11.8 M-37.2-26.9h-16.1c-1.1,0-2,0.8-2.2,1.9L-62,16.3c-0.1,0.8,0.5,1.6,1.3,1.6h7.7c1.1,0,2-0.8,2.2-1.9
		L-49,4.8c0.2-1.1,1.1-1.9,2.2-1.9h5.1C-31.1,3-25-2.2-23.4-12.4c0.7-4.4,0-7.9-2.1-10.4C-27.7-25.4-31.8-26.9-37.2-26.9"/>
</g>
<g transform="translate(79.1228,19.7234)">
	<path class="st0" d="M-16.9,10.2c-0.7,4.4-4.2,7.4-8.7,7.4c-2.2,0-4-0.7-5.2-2.1c-1.1-1.3-1.6-3.3-1.2-5.4c0.7-4.4,4.2-7.4,8.6-7.4
		c2.2,0,4,0.7,5.1,2.1C-17,6.1-16.5,8.1-16.9,10.2 M-6.1-4.8h-7.7c-0.7,0-1.2,0.5-1.3,1.1l-0.3,2.2L-16-2.3
		c-1.7-2.4-5.4-3.2-9.1-3.2C-33.7-5.6-41,0.9-42.4,10c-0.7,4.5,0.3,8.8,2.9,11.8c2.4,2.8,5.7,3.9,9.7,3.9c6.9,0,10.7-4.4,10.7-4.4
		l-0.3,2.1c-0.1,0.8,0.5,1.6,1.3,1.6h6.9c1.1,0,2-0.8,2.2-1.9l4.2-26.4C-4.7-4.1-5.3-4.8-6.1-4.8"/>
</g>
<g transform="translate(134.4426,19.7234)">
	<path class="st0" d="M42.7,10.2c-0.7,4.4-4.2,7.4-8.7,7.4c-2.2,0-4-0.7-5.2-2.1c-1.1-1.3-1.6-3.3-1.2-5.4c0.7-4.4,4.2-7.4,8.6-7.4
		c2.2,0,4,0.7,5.1,2.1C42.6,6.1,43,8.1,42.7,10.2 M53.4-4.8h-7.7c-0.7,0-1.2,0.5-1.3,1.1l-0.3,2.2l-0.5-0.8
		c-1.7-2.4-5.4-3.2-9.1-3.2c-8.5,0-15.8,6.5-17.2,15.5c-0.7,4.5,0.3,8.8,2.9,11.8c2.4,2.8,5.7,3.9,9.7,3.9c6.9,0,10.7-4.4,10.7-4.4
		l-0.3,2.1C40,24.3,40.6,25,41.4,25h6.9c1.1,0,2-0.8,2.2-1.9l4.2-26.4C54.9-4.1,54.3-4.8,53.4-4.8"/>
</g>
<g transform="translate(104.0795,26.9523)">
	<path class="st0" d="M10-12.1H2.2c-0.7,0-1.4,0.4-1.9,1L-10.3,4.7l-4.5-15.1c-0.3-0.9-1.2-1.6-2.1-1.6h-7.6c-0.9,0-1.6,0.9-1.3,1.8
		l8.5,25.1l-8,11.3c-0.6,0.9,0,2.1,1.1,2.1h7.7c0.7,0,1.4-0.4,1.8-1L11.1-9.9C11.7-10.8,11.1-12.1,10-12.1"/>
</g>
<g transform="translate(143.996,33.5807)">
	<path class="st0" d="M53-32.4L46.4,9.6c-0.1,0.8,0.5,1.6,1.3,1.6h6.6c1.1,0,2-0.8,2.2-1.9L63.1-32c0.1-0.8-0.5-1.6-1.3-1.6h-7.4
		C53.6-33.6,53.1-33.1,53-32.4"/>
</g>
</svg>
