<?xml version="1.0" encoding="utf-8"?>
<!-- Generator: Adobe Illustrator 19.1.0, SVG Export Plug-In . SVG Version: 6.00 Build 0)  -->
<svg version="1.1"
	 id="svg2" xmlns:rdf="http://www.w3.org/1999/02/22-rdf-syntax-ns#" xmlns:dc="http://purl.org/dc/elements/1.1/" xmlns:cc="http://creativecommons.org/ns#" xmlns:svg="http://www.w3.org/2000/svg"
	 xmlns="http://www.w3.org/2000/svg" xmlns:xlink="http://www.w3.org/1999/xlink" x="0px" y="0px" viewBox="-155 279 300 235"
	 style="enable-background:new -155 279 300 235;" xml:space="preserve">
<style type="text/css">
	.st0{fill:#CCCCCC;}
</style>
<g id="layer1" transform="translate(0,-817.36218)">
	<g id="g3244" transform="matrix(0.78491286,0,0,0.78491286,-972.12018,-72.845919)">
		<path id="path7-0-5" class="st0" d="M1245.5,1552.3l-0.2,234.3l-59.5-20.4l-0.4-274.2l75.9,21.2c48.6,13.8,78.3,40.6,77.8,87.6
			c-0.5,54.6-25.9,75.8-68.9,55.8v-101.3C1270.2,1540.3,1245.5,1529.4,1245.5,1552.3L1245.5,1552.3z"/>
		<path id="path9" class="st0" d="M1173.2,1658.6l-8.9,2.9l-86.5,31c-18.2,8.4-33.4,13.8-33.5,27.4c0.5,17.2,27.5,25.6,67,32.2
			c21.1,4.2,42.6,1.4,61-2.5l0-32.5c0,0-34.2,13.3-42.3,14.4l-16.4-0.1c-12.2-0.1-17.9-7.9-5.7-12.1l65.4-24.8L1173.2,1658.6
			L1173.2,1658.6z"/>
		<path id="path9-8" class="st0" d="M1327,1673.2c-22.7-0.1-54.2,6.1-69.8,13.4v37l41.1-15l32.6-10.4c33.9-5.6,47.4,6.3,14.4,16.2
			l-88.1,32.2l-0.1,35.9l128.7-46.3c14.2-5,34.2-15,34.2-27.2c-3.4-19-32.1-30.1-76.5-34.8c-4-0.4-8-0.7-12-0.8
			C1330,1673.3,1328.5,1673.2,1327,1673.2L1327,1673.2z"/>
	</g>
</g>
</svg>
