<svg xmlns="http://www.w3.org/2000/svg" width="1000" height="332.095"><path d="M976.683 114.665l-39.955-39.95h-74.222V23.328H799.7v234.057h62.806v-119.89h51.37v119.89h62.807V114.665zM776.88 74.715h-97.05l-39.963 39.95v102.753l39.963 39.97h97.05v-62.79h-74.224v-57.1h74.223V74.713zm-159.848 0h-51.37V23.328h-62.807v194.088l39.963 39.97h74.214v-62.79h-51.37v-57.1h51.37V74.713zM480.02 23.328h-62.79V51.88h62.79V23.33zm0 51.384h-62.79v182.67h62.79V74.714zm-85.624 0H331.6v119.884h-22.828V74.714h-62.798v119.884h-22.826V74.714H160.34v182.673h194.1l39.956-39.97V74.715zm-256.89 0H86.133V23.33H23.338v194.088l39.96 39.97h74.208v-62.79H86.133v-57.1h51.373V74.713zM999.5 103.247v171.256l-85.624 57.092h-57.083v-28.553l-39.96 28.553h-51.37v-28.553l-28.536 28.553h-91.342l-28.553-28.553-5.715 28.553h-79.91l-32.678-28.553-1.83 28.553h-90.576l-3.203-28.553-24.517 28.553H240.258l-28.547-11.42v11.42h-74.204l-85.633-51.39L.5 228.85V.5h108.47l51.37 51.382h234.056V.5h194.092v51.382h51.38v28.536l28.552-28.536h57.074L776.88.5h108.46v51.382h62.798l51.362 51.365z" fill="#6441a5" fill-rule="evenodd"/></svg>