<?xml version="1.0" encoding="utf-8"?>
<!-- Generator: Adobe Illustrator 19.1.0, SVG Export Plug-In . SVG Version: 6.00 Build 0)  -->
<svg version="1.1"
	 id="svg4136" sodipodi:docname="Xbox Logo.svg" inkscape:version="0.91 r13725" xmlns:sodipodi="http://sodipodi.sourceforge.net/DTD/sodipodi-0.dtd" xmlns:rdf="http://www.w3.org/1999/02/22-rdf-syntax-ns#" xmlns:dc="http://purl.org/dc/elements/1.1/" xmlns:inkscape="http://www.inkscape.org/namespaces/inkscape" xmlns:cc="http://creativecommons.org/ns#" xmlns:svg="http://www.w3.org/2000/svg"
	 xmlns="http://www.w3.org/2000/svg" xmlns:xlink="http://www.w3.org/1999/xlink" x="0px" y="0px" viewBox="-118 208.8 369 376.2"
	 style="enable-background:new -118 208.8 369 376.2;" xml:space="preserve">
<style type="text/css">
	.st0{fill:#CCCCCC;}
</style>
<title  id="title4166">Xbox Logo</title>
<sodipodi:namedview  inkscape:current-layer="svg4136" inkscape:window-maximized="1" inkscape:window-y="-8" inkscape:window-x="-8" inkscape:window-height="1017" inkscape:window-width="1920" inkscape:pageshadow="2" inkscape:pageopacity="0" objecttolerance="10" gridtolerance="10" inkscape:cy="188.125" inkscape:cx="187.5" inkscape:zoom="2.2378738" showgrid="false" guidetolerance="10" id="namedview4138" bordercolor="#666666" borderopacity="1" pagecolor="#ffffff">
	</sodipodi:namedview>
<g id="g4146" transform="translate(-0.10064756,0.22319253)">
	<path id="path4164" inkscape:connector-curvature="0" class="st0" d="M47,583.7c-11.8-1.6-30.6-6.1-40.6-9.6c-22-7.8-56-29-62.8-39
		c-5.5-8.1-3.2-24.5,6-42.6c17.1-34,68-92,111.3-127l8.6-6.9l9.4,7.6c49.6,40.5,101.5,102,114.6,135.7c4.4,11.4,5.9,23.1,3.6,29.9
		c-1.1,3.3-3.9,6.5-9.8,11.2c-24.7,19.7-50.3,31.9-80.8,38.3C92.1,584.2,60.2,585.6,47,583.7z M-86.3,501.6
		c-13.2-19.9-23.1-43.3-28.2-66.9c-4-18.5-4-57,0-75.5c7.3-33.6,23.5-65.1,46.4-89.9c6.6-7.2,6.9-7.4,13.1-7.3
		c12.9,0.1,36.6,15.1,62.3,39.3l12.2,11.5l-5.2,6.4c-29,36-57.2,79.7-74.2,115c-15.2,31.4-21.3,54.7-18.5,70.1
		C-76.7,513.9-78.5,513.3-86.3,501.6z M216.3,509.2c10.1-26-21.7-97-76.1-169.8c-6.2-8.3-13.4-17.7-16-20.9l-4.7-5.7l12.2-11.6
		c23.3-22.1,47.3-37.7,60.8-39.5l6.1-0.8l9.1,9.4c21.8,22.6,38.3,54.9,45.8,89.7c4.1,18.8,4.1,54.8,0.1,73.2
		c-5.5,25.4-16,50.4-28.6,68.6C219,510.2,214.3,514.3,216.3,509.2z M51.5,256.8c-27.6-13.6-52.7-20.3-71-18.9
		c-5.4,0.4-9.8,0.3-9.8-0.4c0-1.7,25.7-14.4,37.9-18.7c21.2-7.4,33.7-9.4,60.9-9.4c27.8,0,41.1,2.2,62.4,10.1
		c12.4,4.6,36.3,16.3,36.3,17.7c0,0.5-6.6,0.8-14.7,0.9c-11.9,0-17,0.7-26.8,3.4c-15.7,4.3-29.3,9.6-44.3,17.2
		c-6.7,3.4-12.8,6.1-13.5,6.1C68.2,264.8,60.4,261.2,51.5,256.8z"/>
	<path id="path4162" inkscape:connector-curvature="0" class="st0" d="M52.6,584.3c-36.3-5.3-59.5-13.3-83.8-28.9
		c-13.8-8.9-23.9-17.4-26.1-22c-9.3-19.6,12.3-59.6,61.5-113.8C24.8,396.8,65.1,360,69.4,360c4.1,0,43.2,35.6,63.6,57.8
		c49.8,54.4,72.5,95.7,63.3,115.2c-3.6,7.7-24.9,22.9-46.2,33.1c-24.9,11.9-47.3,17.3-75.6,18.1C64.5,584.6,54.7,584.6,52.6,584.3
		L52.6,584.3z M-82.2,507.2c-14.8-19.7-26.3-46-32.3-73.9c-4-18.2-4-54.5,0-72.7c5.7-26.1,14.5-47.2,28.6-68.4
		c10-15,24.8-30.9,28.9-30.9c4.7,0,17.9,4.9,25.4,9.5c14.3,8.6,49.9,38.6,49.9,42c0,0.7-4.7,7.3-10.4,14.6
		c-35.6,45.7-65.4,95.5-78.8,131.5c-6.3,16.9-8.9,30.8-7.9,42.8c0.4,5.4,0.5,9.7,0.2,9.7C-78.9,511.2-80.5,509.4-82.2,507.2z
		 M217.6,497.9c0-20.3-5.2-37.3-21.1-69.2c-16.7-33.2-45.3-77.2-69.6-107l-7.2-8.9l8.4-8.1c21.2-20.7,43.8-36.8,57.4-41
		c4.5-1.4,9.2-2.5,10.5-2.5c6.8,0,29.7,29,41,51.9c14.2,28.8,19.3,51.1,19.4,83.8c0,23.7-2.4,39.7-9.1,59.4
		c-6.2,18.4-17.8,40.6-26.7,51.6l-2.9,3.5L217.6,497.9L217.6,497.9z M58.9,259.9c-10.5-5.8-33.7-15.1-47.5-19
		c-7.8-2.2-13.3-2.8-25.3-2.8c-8.4,0-15.3-0.4-15.3-0.9c0-1.5,30.1-15.8,40-19c19.8-6.5,34-8.7,57.5-8.8c25-0.1,37.1,1.7,58.6,8.6
		c13.5,4.4,39,16.4,39.7,18.7c0.3,0.8-4.9,1.3-13.7,1.3c-10.6,0-16.9,0.8-25.3,3c-13.6,3.5-32.5,10.9-46.9,18.4
		c-5.9,3-11.2,5.5-11.9,5.4C68.2,264.9,63.7,262.6,58.9,259.9L58.9,259.9z"/>
	<path id="path4160" inkscape:connector-curvature="0" class="st0" d="M48.9,583.6c-33.3-3.7-67.1-17.5-94.1-38.4
		c-10.9-8.5-14-13.4-14-22.4c0-21.8,24.2-60.5,66.5-106.1C27,395.2,65.6,360,69.3,360c4.8,0,55,47.4,76.1,71.9
		c40.4,46.8,58.5,82.1,51.1,99.8c-4.3,10.3-33,29.7-59,40C110,582.6,78.2,586.8,48.9,583.6L48.9,583.6z M-83.3,505.3
		c-15.1-20.9-25.8-46-31.2-73.1c-4-20-4-50.8-0.1-70.4c6.3-31.2,17.9-56.6,37.2-81.2c12.6-16,15.6-18.5,22.7-18.3
		c12.5,0.2,37.5,16.3,64.2,41.2c7.3,6.8,9.1,9.2,8.1,10.6c-0.7,1-8,10.8-16.2,21.7C-34.8,383.6-61,429.1-73.2,465
		c-5.1,15-5.3,16.3-5.4,30.9c0,8.4-0.1,15.3-0.3,15.3C-78.9,511.2-81,508.6-83.3,505.3z M217.5,496.6c-0.1-12.3-0.6-16.5-3.5-25.9
		c-11.7-38.1-43.8-93.6-84-145c-7.4-9.5-9.3-12.8-8.4-14.3c2-3.2,25.3-23.7,36-31.7c13.5-10.1,28.3-17.1,36.3-17.3
		c6.1-0.1,6.3,0,14.1,8.5c8.2,8.9,19.5,24.8,26.2,36.7c13.4,23.9,22.8,60.8,22.8,89.4c0,29.7-9.5,65.6-24.1,91.4c-4,7-14.4,23-15,23
		C217.7,511.3,217.6,504.6,217.5,496.6L217.5,496.6z M52.6,256.8c-28.9-14.1-50.7-20-70.7-19.1c-13.6,0.7-13.3-0.1,4.1-8.8
		c27.2-13.6,52.3-19.4,83.4-19.4c22.6,0,36.5,2.1,56.9,8.7c13.5,4.3,39.5,16.5,40.2,18.8c0.2,0.7-3.4,1-9.1,0.7
		c-19.3-1-43,5.4-71.5,19.2c-9.2,4.4-16.8,8-16.9,8C69,264.8,61.6,261.2,52.6,256.8z"/>
	<path id="path4158" inkscape:connector-curvature="0" class="st0" d="M51.5,583.6c-31.9-3.4-62.1-14.5-88.1-32.4
		c-22.9-15.8-26-22.3-20-42c8.4-27.2,34.4-62.7,77.9-106.2c23.7-23.7,45.4-43,48.3-43c2.1,0,24.6,19.6,42.3,36.8
		c58.7,57.3,92.8,110.7,85.2,133.6c-1.8,5.4-10.4,13.4-24.3,22.6c-26.4,17.4-53.9,27.1-87.3,30.7C71.9,585.2,65.9,585.1,51.5,583.6
		L51.5,583.6z M-84.4,503.6c-17.5-25.8-27.7-52.5-31.8-83.3c-2.4-17.8-2.4-28.9,0-46.7c5.1-38.9,21.4-74.3,47.1-102.7l7.8-8.6l7,0.5
		c8.8,0.6,19.9,5.8,33.6,15.7c10.9,7.9,39,32.6,39,34.3c0,0.6-4.8,7.1-10.6,14.5c-23.7,30-47.3,66.4-63.2,97.2
		c-18,34.9-24.3,55.2-23.4,75.3c0.3,6.4,0.4,11.6,0.2,11.6S-81.5,507.8-84.4,503.6z M217.6,496.6c0-16.5-1.4-22.5-10-44.1
		c-14.6-36.5-47.2-89.7-79.5-129.7c-4-5-7.3-9.6-7.3-10.2c0-0.7,6-6.6,13.4-13.2c27.2-24.4,44.8-35.4,58.3-36.5l7.8-0.6l7.4,8.4
		c18,20.3,30.9,42.7,39.2,67.8c6.9,20.8,9.3,35.9,9.3,58.5c0,22.5-2.4,37.7-9.2,58.3c-5.6,17-12.6,31.4-22.1,45.8
		c-3.8,5.7-6.9,10.3-7.1,10.3C217.7,511.2,217.6,504.6,217.6,496.6L217.6,496.6z M52.6,256.8c-16.6-8.2-36.5-15.4-50.1-18
		c-4.2-0.8-12.8-1.3-19.1-1c-6.3,0.2-11.4,0-11.4-0.5c0-1.3,23-12.7,33.4-16.7c23.4-8.8,55.3-13.1,79.1-10.6
		c27.5,2.9,43.4,7.3,67.1,18.9c8.4,4.1,15.3,7.9,15.3,8.4s-5,0.7-11.2,0.5c-19.5-0.8-43.6,5.9-71.8,19.9c-8.2,4.1-14.9,7.3-15,7.3
		C68.9,264.8,61.6,261.2,52.6,256.8L52.6,256.8z"/>
	<path id="path4156" inkscape:connector-curvature="0" class="st0" d="M53.2,583.6c-32.1-3.2-61.1-13.4-87-30.6
		c-14-9.2-22.5-17.2-24.3-22.6c-5.6-16.9,11.4-50.5,47.4-93.5C7.6,415,64.8,360,69.3,360c2,0,26.4,21.1,42.5,36.8
		c55.5,54.2,89.4,105.8,85.8,130.7c-0.7,4.7-1.9,6.7-7.4,11.9c-12.9,12.3-38.3,27.1-58.4,34.2c-13.5,4.7-31.7,8.6-48.4,10.2
		C69.1,585.1,68.4,585.1,53.2,583.6L53.2,583.6z M-85.9,500.9c-14.1-21.3-24.7-47.9-29.1-72.8c-3-16.8-3-45.7,0-62.5
		c6.1-34.5,22.5-68.1,46.2-94.9c7-7.9,7.5-8.2,13.1-8.2c14.1,0.1,37.8,15.3,65,41.5c8,7.7,8.9,9.1,7.5,11
		c-0.9,1.2-8.1,10.8-16.1,21.4c-34.4,45.5-62.4,94-74.3,128.9c-4.6,13.4-4.8,14.9-4.9,30c0,8.8-0.1,15.9-0.3,15.9
		C-79,511.2-82.2,506.6-85.9,500.9z M218,499.7c0.4-8.8-0.1-14.2-2.2-22.7c-8.3-34.7-38.5-89.4-78.5-142.1
		c-7.4-9.7-14.3-18.8-15.3-20.2c-2-2.8-3.5-1.2,21.2-23c20.3-17.9,40-29.1,51.5-29.1c5.8,0,5.9,0,15,10.7
		c27.6,32.4,41.6,65.5,46.1,109.1c3.1,30.2-3.6,65.5-18.2,95.8c-5.5,11.3-15.6,28.2-19.2,32.2C217.9,510.8,217.7,506,218,499.7
		L218,499.7z M62,261c-10.1-5.8-33.8-15.7-45.9-19.2c-13-3.8-28.7-5.6-37.5-4.4c-3.6,0.5-6.6,0.5-6.6,0c0-1.7,24.3-13.4,36.9-17.8
		c38-13.2,77.6-13.7,116.8-1.5c10.6,3.3,41.2,17.5,41.3,19.1c0,0.5-4.9,0.7-10.9,0.4c-22.9-0.9-47.7,6.8-86.6,27
		C69.2,264.8,65.8,263.2,62,261z"/>
	<path id="path4154" inkscape:connector-curvature="0" class="st0" d="M55.8,583.6c-33.5-2.9-61.7-12.5-88.6-30.2
		c-17.1-11.3-23.6-17.4-25.4-23.8C-63,511.7-43,474.1-6.2,431.9c19.8-22.6,53.8-55.5,71-68.6l4.7-3.6l11.6,9.4
		c25.2,20.5,58.2,54.5,80.1,82.5c30,38.4,42.1,67.8,33.9,82.1c-3,5.3-20.5,18.6-34.6,26.6C129.2,577.8,90,586.5,55.8,583.6
		L55.8,583.6z M-86.9,499.1c-17.5-27.3-26.2-52.7-30-88c-2.3-20.9,0.9-47.2,8.5-71.6c4-12.7,14.7-34.9,22.3-46.3
		c8.9-13.3,23-29.3,26.4-30.2c12.2-3.1,38.9,12.6,65.9,38.6l12,11.6L7,327.5c-15.6,19.9-32.3,44-45.9,66.6
		c-29.5,48.6-44,87.7-40.5,109.4c0.6,3.6,0.7,6.6,0.3,6.6C-79.5,510-83,505.1-86.9,499.1z M217.5,508c1.4-3.5,1.1-20.4-0.5-27.5
		c-8.3-37.9-46.1-105.1-89.3-158.7l-7.1-8.8l12-11.7c23-22.3,46.2-37.2,60-38.6l6.9-0.7l5.7,6.1c21.1,22.7,37.2,51.8,44.7,80.7
		c1.7,6.7,4.1,20.1,5.2,29.9c1.9,16.4,1.9,19.2,0,35.7c-3.9,34-13.5,61-30.9,86.9C219.2,509,215.9,512.2,217.5,508L217.5,508z
		 M53.5,256.8c-27.6-14-58.4-22.2-74-19.7c-4.1,0.7-7.4,0.8-7.4,0.4c0-1.5,21.7-12.2,33.8-16.6c14.9-5.5,31.5-9.1,50-10.8
		c33.2-3,73.8,5.9,103.7,22.7l7.6,4.3l-12.8,0c-20.5,0.1-44.8,7.2-71.6,20.8c-6.9,3.5-12.8,6.5-13.1,6.5S61.9,261.1,53.5,256.8z"/>
	<path id="path4152" inkscape:connector-curvature="0" class="st0" d="M49.5,583c-30.9-3.9-59.2-14.3-84.1-30.9
		c-24.4-16.2-27.8-23.2-21.3-44c10.4-33.5,60.8-94.9,114.1-139.3c5.8-4.9,10.9-8.8,11.3-8.8c1.9,0,33.2,28,49.4,44.3
		c39,39.2,66.9,77.4,75.6,103.2c3.1,9.3,3.5,20.8,0.8,25.9c-5.3,10.3-38.9,31-64.9,40.2c-18.6,6.5-32.9,9-55.9,9.5
		C63.2,583.3,51.9,583.3,49.5,583L49.5,583z M-83.6,504.1c-6.6-9.1-15-24.7-20.1-37.2c-6.3-15.5-10.2-31.9-12.7-52.4
		c-1.9-16.2-1.9-18.6,0-35c1.1-9.7,3.4-23,5.1-29.5c7.6-29.7,23.9-59.5,43.6-79.8c7.6-7.8,7.8-7.9,13.5-7.4
		c13,1.2,36.9,16.6,60.8,39c11.5,10.8,11.6,10.9,9.4,13.7c-63.5,80.6-102,156.3-95.7,188.1c0.7,3.5,1.1,6.4,0.8,6.4
		C-79,510-81.2,507.3-83.6,504.1L-83.6,504.1z M218.5,504c3.4-17.8-7.7-52.1-29.7-91.7c-15.5-27.9-40.1-64.4-61.9-91.9l-6.1-7.7
		l12.1-11.5c23.4-22.2,46.9-37.2,60.1-38.5l6.1-0.6l9,9.7c32.7,35.1,52.2,91.4,47.6,138.1c-2.7,27.3-8.6,48.8-19.5,70.7
		c-5.4,10.8-15.7,27.4-17.8,28.7C217.8,509.7,217.8,507.3,218.5,504L218.5,504z M52.5,256.2c-27.9-13.9-54.4-21-72.3-19.5l-8.8,0.8
		l6.9-3.9c16.2-9.1,36.5-16.6,56.2-20.8c15.1-3.2,55-3.2,70,0c15.9,3.4,34.4,9.9,49.3,17.4l13.3,6.7l-13.5,0.1
		c-20.6,0.1-41.3,6.1-71,20.7l-13.7,6.7L52.5,256.2z"/>
	<path id="path4150" inkscape:connector-curvature="0" class="st0" d="M52,583c-38.7-4.6-69.2-17-99.2-40.4
		c-9-7-10.8-10.4-10.8-20.1c0-13.2,6-27.5,20.9-50c22-33.2,61.3-75.7,96.9-104.8l9.7-7.9l14.6,12.3c17.2,14.5,45.3,42.3,60.5,59.9
		c39.8,45.9,57.6,81.1,50.9,100.3c-1.5,4.3-11.2,12.5-25.5,21.8c-29.2,18.8-60.3,28.2-95.6,29.1C64.5,583.3,54.4,583.3,52,583
		L52,583z M-84.2,502.9c-2.8-3.9-8.1-13-11.8-20.3c-11.8-23.2-16.7-39.9-20.2-68.8c-1.9-15.5-1.9-18.1,0-34c1.1-9.5,3.1-21.6,4.4-27
		c7.1-29.6,23.2-60.1,43-81.3l8.8-9.4l5.8,0.7c7.7,0.9,17.6,5.4,29.3,13.3c9.7,6.5,31.6,24.9,39,32.7l4,4.2l-7.6,9.4
		c-55.8,69.2-96.4,150.9-90.2,181.2c0.7,3.4,1.1,6.3,0.9,6.3C-79,510-81.4,506.8-84.2,502.9L-84.2,502.9z M218.6,503.7
		c6.2-31.1-34.8-112.6-92.7-184.5l-5.2-6.4l11.6-10.9c23.6-22.2,46.8-37.2,60.1-38.9l6.1-0.8l8.3,8.7c21.6,22.4,37.9,54.5,45.4,88.8
		c3.7,17.1,4,52.8,0.6,71.1c-4.5,24.2-14.2,48.2-27.5,68.7c-3.8,5.8-7.1,10.6-7.4,10.6C217.6,510,217.9,507.1,218.6,503.7z
		 M51.5,255.6c-27.2-13.4-53-20.4-70.2-19.1c-4.5,0.4-8.1,0.4-8.1,0.2c0-1.2,25.4-13.1,35.4-16.6c20.7-7.3,33.8-9.3,60.2-9.4
		c33-0.1,51.6,3.9,79,16.8c19.8,9.3,19.8,9.3,4.3,9.5c-19.8,0.2-39.1,5.8-67.2,19.4c-8.3,4.1-15.7,7.3-16.2,7.3
		C68.1,263.6,60.4,260,51.5,255.6z"/>
	<path id="path4148" inkscape:connector-curvature="0" class="st0" d="M50.3,582.5c-28.7-2.7-57.7-13-82.7-29.3
		C-53.3,539.5-58,533.9-58,522.7c0-22.5,24.7-61.8,67-106.7c24-25.5,57.5-55.4,61.1-54.6c7,1.6,63.3,56.4,84.3,82.2
		c33.3,40.8,48.6,74.2,40.8,89.1c-5.9,11.3-42.6,33.5-69.5,42C103.5,581.8,74.3,584.8,50.3,582.5L50.3,582.5z M-86.2,499.4
		c-17.4-26.6-26.1-52.9-30.4-90.8c-1.4-12.5-0.9-19.7,3.2-45.4c5.1-32.1,23.3-69.1,45.3-92c9.3-9.7,10.2-10,21.6-6.1
		c13.8,4.7,28.6,14.9,51.5,35.6l13.4,12.1l-7.3,9c-33.9,41.6-69.6,100.6-83.1,137.1c-7.3,19.8-10.3,39.8-7.1,48
		C-77.2,512.4-79.1,510.3-86.2,499.4z M218.7,503.9c1.7-8.4-0.5-23.8-5.5-39.3c-11-33.6-47.8-96.1-81.7-138.6l-10.6-13.4l11.5-10.6
		c15-13.8,25.5-22.1,36.7-29.1c8.9-5.5,21.6-10.4,27.1-10.4c3.4,0,15.2,12.3,24.8,25.7c14.8,20.8,25.7,46,31.2,72.2
		c3.6,16.9,3.9,53.2,0.6,70.1c-2.7,13.9-8.4,31.9-14,44.1c-4.2,9.1-14.5,26.9-19.1,32.7C217.4,510.3,217.4,510.3,218.7,503.9
		L218.7,503.9z M53.4,256.2c-15.6-7.9-39.7-16.4-53-18.7c-4.7-0.8-12.6-1.2-17.7-1c-11,0.6-10.5,0,7.1-8.3
		c14.6-6.9,26.8-11,43.4-14.5c18.6-3.9,53.7-4,72-0.1c19.8,4.2,43.1,12.9,56.3,20.9l3.9,2.4l-9-0.5c-17.8-0.9-43.8,6.3-71.6,19.9
		c-8.4,4.1-15.7,7.4-16.2,7.3C68.1,263.5,61.2,260.1,53.4,256.2L53.4,256.2z"/>
</g>
</svg>
