<?xml version="1.0" standalone="no"?>
<!DOCTYPE svg PUBLIC "-//W3C//DTD SVG 20010904//EN"
 "http://www.w3.org/TR/2001/REC-SVG-20010904/DTD/svg10.dtd">
<svg version="1.0" xmlns="http://www.w3.org/2000/svg"
 width="400.000000pt" height="400.000000pt" viewBox="0 0 400.000000 400.000000"
 preserveAspectRatio="xMidYMid meet">
<metadata>
Created by potrace 1.11, written by Peter Selinger 2001-2013
</metadata>
<g transform="translate(0.000000,400.000000) scale(0.100000,-0.100000)"
fill="#000000" stroke="none">
<path d="M0 2000 l0 -2000 2000 0 2000 0 0 2000 0 2000 -2000 0 -2000 0 0
-2000z m2605 1481 l170 -169 196 -52 c108 -29 200 -55 206 -59 5 -3 33 -96 62
-206 l53 -200 170 -171 170 -171 -20 -74 c-11 -41 -39 -145 -62 -231 l-41
-158 52 -192 c28 -106 54 -201 57 -211 4 -14 -35 -59 -151 -175 l-156 -157
-57 -215 c-32 -118 -60 -218 -64 -223 -5 -6 -169 -52 -370 -104 -64 -16 -67
-19 -232 -181 l-167 -165 -216 58 c-159 42 -227 56 -253 51 -21 -3 -118 -28
-217 -55 l-180 -49 -156 154 -155 155 -229 62 -230 62 -61 229 -62 228 -155
157 -155 156 54 195 c29 107 54 204 55 215 2 11 -24 118 -56 238 l-58 219 163
163 164 164 58 217 c32 120 60 220 63 222 3 3 103 31 222 64 l218 58 156 156
156 156 212 -57 212 -58 222 61 c122 33 226 61 232 61 5 1 86 -75 180 -168z"/>
<path d="M2225 3552 c-145 -39 -165 -47 -140 -54 17 -4 149 -40 295 -79 146
-38 274 -73 285 -76 11 -3 -38 54 -110 126 -71 72 -137 131 -145 130 -8 0 -91
-21 -185 -47z"/>
<path d="M1435 3470 l-119 -119 90 24 c49 14 176 48 282 77 105 28 190 53 188
55 -6 7 -289 83 -306 83 -8 0 -69 -54 -135 -120z"/>
<path d="M1600 3384 l-344 -93 -272 -272 -271 -271 -102 -378 -101 -378 94
-353 95 -353 284 -283 283 -284 353 -94 352 -95 117 31 c64 17 180 48 257 68
77 21 195 53 262 71 l122 33 267 268 c147 147 271 274 275 281 10 19 189 694
189 714 0 9 -45 186 -101 393 l-100 376 -256 256 -255 256 -381 102 c-210 56
-391 101 -402 100 -11 0 -175 -43 -365 -95z m440 -240 c22 -20 40 -39 40 -43
0 -3 -38 -6 -85 -6 -47 0 -85 3 -85 6 0 7 77 79 85 79 3 0 23 -16 45 -36z
m203 -308 c335 -85 609 -307 895 -725 l71 -103 -58 -87 c-202 -299 -394 -499
-596 -621 -212 -128 -448 -186 -648 -161 -407 52 -711 273 -1045 760 -82 118
-82 96 9 232 264 394 579 640 914 714 34 7 127 13 211 14 129 1 165 -3 247
-23z m-963 -4 c0 -4 -27 -34 -60 -67 l-60 -59 0 31 c0 17 3 44 6 61 6 29 10
31 53 35 25 2 49 4 54 5 4 1 7 -2 7 -6z m1544 -34 c3 -17 6 -44 6 -61 l0 -31
-60 59 c-33 33 -60 62 -60 65 0 3 24 3 54 2 51 -4 54 -5 60 -34z m-2106 -840
l-3 -41 -39 47 -39 48 39 39 39 40 3 -46 c2 -25 2 -64 0 -87z m2613 61 l19
-27 -40 -43 -39 -44 -1 89 0 89 21 -19 c12 -10 30 -31 40 -45z m-2102 -847
c-28 -2 -53 -2 -55 0 -2 2 -6 31 -10 64 l-6 59 61 -60 62 -60 -52 -3z m1596
43 l-6 -43 -54 -4 c-30 -1 -55 -1 -55 2 0 2 26 31 58 63 62 63 69 61 57 -18z
m-745 -314 c0 -5 -19 -25 -42 -44 l-42 -35 -43 35 c-24 20 -43 39 -43 44 0 5
38 9 85 9 47 0 85 -4 85 -9z"/>
<path d="M1851 2610 c-242 -51 -413 -179 -633 -474 l-96 -130 26 -40 c95 -148
248 -316 372 -408 395 -294 808 -219 1182 213 63 74 168 220 168 235 0 10
-163 227 -224 298 -119 138 -288 251 -441 292 -70 19 -288 27 -354 14z m164
-273 c5 -23 15 -42 20 -41 6 0 21 18 35 39 l25 38 3 -47 c4 -54 16 -58 63 -18
28 22 32 24 25 7 -28 -68 -14 -86 45 -56 52 27 54 27 30 -8 -12 -16 -21 -39
-21 -51 0 -19 4 -22 33 -18 17 3 41 9 52 13 15 7 12 -1 -12 -28 -48 -55 -45
-71 15 -62 47 6 47 6 22 -11 -60 -41 -64 -68 -12 -81 l37 -10 -37 -16 c-21 -9
-38 -23 -38 -31 0 -9 17 -24 38 -35 l37 -20 -41 -1 c-63 0 -72 -20 -32 -66 25
-29 28 -36 13 -30 -40 15 -73 18 -79 7 -4 -6 2 -26 13 -45 28 -45 27 -49 -11
-26 -18 11 -39 20 -45 20 -15 0 -17 -39 -3 -74 12 -32 6 -33 -32 -1 -44 37
-56 33 -60 -22 l-3 -48 -23 39 c-18 31 -25 36 -37 26 -8 -7 -17 -27 -21 -46
-9 -46 -21 -43 -31 9 -10 51 -30 55 -58 10 -11 -18 -23 -32 -26 -33 -3 0 -5
19 -5 41 1 52 -12 58 -53 23 -37 -31 -46 -28 -31 10 24 64 -1 87 -53 46 -36
-29 -42 -25 -18 14 37 59 25 78 -35 56 -40 -16 -42 -4 -5 32 30 30 31 33 15
45 -10 7 -34 13 -53 13 l-36 1 38 20 c20 11 37 23 37 27 0 16 -17 31 -45 43
l-30 12 32 8 c49 14 51 29 7 67 l-39 34 48 -7 c58 -9 61 3 15 60 -25 30 -28
37 -13 30 11 -4 35 -10 53 -13 39 -5 43 14 10 66 -12 19 -17 33 -12 31 5 -3
26 -13 47 -24 49 -25 64 -12 43 39 -18 43 -14 44 26 11 39 -33 54 -27 51 19
-3 44 6 45 32 3 29 -46 48 -41 59 15 11 55 17 54 31 -5z"/>
<path d="M1915 2186 c-64 -29 -115 -110 -115 -183 1 -73 58 -158 123 -182 72
-27 173 -5 224 51 84 90 54 251 -56 308 -47 23 -130 26 -176 6z"/>
<path d="M976 3216 l-149 -41 -43 -160 c-24 -88 -42 -163 -41 -168 1 -4 96 87
212 203 138 139 203 210 190 209 -11 -1 -87 -20 -169 -43z"/>
<path d="M3030 3056 c107 -107 196 -194 197 -192 4 4 -74 296 -81 303 -4 4
-216 63 -281 77 -24 6 6 -29 165 -188z"/>
<path d="M3323 2685 c3 -11 41 -152 84 -313 51 -194 80 -286 84 -273 4 10 26
92 50 181 l42 162 -133 132 c-72 72 -130 122 -127 111z"/>
<path d="M518 2552 l-125 -127 47 -175 c41 -149 49 -171 56 -145 4 17 40 151
80 300 40 148 71 271 70 272 -1 1 -58 -55 -128 -125z"/>
<path d="M462 1813 c-12 -49 -31 -119 -42 -158 l-19 -70 121 -120 c66 -66 118
-112 115 -102 -4 10 -37 131 -73 270 -37 139 -70 255 -73 260 -4 4 -17 -32
-29 -80z"/>
<path d="M3416 1647 c-37 -138 -69 -263 -73 -277 -4 -18 26 6 114 93 l119 118
-43 156 c-23 86 -44 158 -46 159 -2 2 -34 -110 -71 -249z"/>
<path d="M751 1094 c16 -60 37 -138 46 -174 8 -36 20 -69 24 -75 8 -8 351
-106 356 -101 1 1 -101 105 -227 231 l-229 228 30 -109z"/>
<path d="M3030 975 c-118 -118 -211 -215 -207 -215 15 0 322 83 329 89 7 6 98
334 94 338 -1 1 -98 -94 -216 -212z"/>
<path d="M2639 666 c-2 -2 -128 -37 -279 -77 -151 -40 -279 -76 -283 -79 -6
-5 265 -83 325 -94 4 0 65 56 136 127 71 70 124 127 117 127 -6 0 -14 -2 -16
-4z"/>
<path d="M1340 653 c0 -5 51 -59 113 -120 l112 -112 160 43 c88 24 153 46 145
49 -8 4 -127 36 -265 73 -137 36 -253 68 -257 71 -5 2 -8 0 -8 -4z"/>
</g>
</svg>
