<?xml version="1.0" encoding="UTF-8" standalone="no"?>
<svg width="68px" height="21px" viewBox="0 0 68 21" version="1.1" xmlns="http://www.w3.org/2000/svg" xmlns:xlink="http://www.w3.org/1999/xlink" xmlns:sketch="http://www.bohemiancoding.com/sketch/ns">
    <!-- Generator: Sketch 3.4.2 (15855) - http://www.bohemiancoding.com/sketch -->
    <title>Path 1</title>
    <desc>Created with Sketch.</desc>
    <defs></defs>
    <g id="Page-1" stroke="none" stroke-width="1" fill="none" fill-rule="evenodd" sketch:type="MSPage">
        <g id="AR" sketch:type="MSArtboardGroup" transform="translate(-16.000000, -40.000000)" fill="#333333">
            <path d="M16.796398,44.4175738 C15.9973257,44.6797808 16.796398,47.2124956 16.796398,48.657564 C16.796398,50.1026324 15.83141,53.3944392 16.0258902,53.8287066 C16.2203704,54.262974 19.2837027,53.8287066 19.2837027,53.8287066 L24.374523,50.0503863 L26.6977652,50.2134722 L27.5551871,48.9322222 L29.2710074,48.1607378 L31.0835074,49.0083941 C31.0835074,49.0083941 35.1184195,49.4158104 35.3950308,50.0162066 C35.6716422,50.6166027 33.1563184,52.4037398 32.2085074,53.9253863 C31.2606964,55.4470328 31.4956168,56.3421343 31.4956168,57.034273 C31.4956168,57.7264117 32.8723145,58.6123047 37.3664551,59.4058552 C41.8605957,60.1994057 49.9472769,60.3130816 50.6831168,59.405855 C51.185006,58.7870693 49.4199262,52.160083 50.6831168,51.1998003 C51.5922965,50.5086382 53.5036734,50.6166027 53.9379996,50.0162066 C54.3723258,49.4158104 55.2119141,48.160738 55.2119141,48.160738 C55.2119141,48.160738 55.564209,49.534668 57.3007812,49.534668 C59.0373535,49.534668 64.1445426,49.0679644 65.0747183,49.0679644 C66.0048941,49.0679644 73.1347769,48.657564 73.1347769,48.657564 L80.3979568,48.1607378 C80.3979568,48.1607378 80.5583386,46.6138628 80.3979568,46.6138628 L74.5844841,46.6138628 C74.5844841,46.6138628 73.2697406,45.1320252 75.9431267,44.8064898 C78.6165128,44.4809544 83.4235916,44.5406206 83.4235916,44.5406206 L83.4235916,42.2364214 L76.8086051,42.2364214 L74.0410269,40.5972613 C74.0410269,40.5972613 73.474865,40.020357 71.7773552,40.020357 C70.0798454,40.020357 69.0141715,40.6182574 69.0141715,40.6182574 C69.0141715,40.6182574 67.1438101,41.2494362 62.1872672,41.3404253 C57.2307242,41.4314144 52.3051871,40.3194292 52.3051871,40.3194292 C52.3051871,40.3194292 50.1214937,40.0661601 48.9094353,40.020357 C47.6973769,39.9745538 43.9626579,40.020357 43.9626579,40.020357 C43.9626579,40.020357 37.912365,40.0796831 36.2732048,40.6182574 C34.6340446,41.1568316 33.8911246,42.8858355 33.8911246,42.8858355 C33.8911246,42.8858355 31.8352007,42.8766727 30.5161247,43.2681597 C29.1970488,43.6596467 29.2710075,44.5406206 29.2710075,44.5406206 C29.2710075,44.5406206 24.8108315,44.500078 22.1464957,44.5406206 C19.4821598,44.5811633 17.5954703,44.1553667 16.796398,44.4175738 Z M38.8037222,50.1700152 C38.4450797,50.678316 35.9382767,53.761953 35.515148,54.6358355 C35.0920194,55.5097179 35.2979349,55.9292475 36.2080191,56.8492142 C37.1181033,57.769181 40.8125112,58.080904 41.8110465,57.6812456 C42.8095818,57.2815873 42.5969353,54.9314896 42.5969353,54.9314896 L40.7417107,53.884474 L40.7417105,52.2691363 L41.8110466,51.655855 L41.8110466,50.1700152 C41.8110466,50.1700152 39.1623648,49.6617144 38.8037222,50.1700152 Z" id="Path-1" sketch:type="MSShapeGroup"></path>
        </g>
    </g>
</svg>