<?xml version="1.0" encoding="UTF-8" standalone="no"?>
<svg width="50px" height="24px" viewBox="0 0 50 24" version="1.1" xmlns="http://www.w3.org/2000/svg" xmlns:xlink="http://www.w3.org/1999/xlink" xmlns:sketch="http://www.bohemiancoding.com/sketch/ns">
    <!-- Generator: Sketch 3.4.2 (15855) - http://www.bohemiancoding.com/sketch -->
    <title>fusion-rifle</title>
    <desc>Created with Sketch.</desc>
    <defs></defs>
    <g id="Page-1" stroke="none" stroke-width="1" fill="none" fill-rule="evenodd" sketch:type="MSPage">
        <g id="Fusion" sketch:type="MSArtboardGroup" transform="translate(-25.000000, -38.000000)" fill="#000000">
            <path d="M34.4727449,39.5050946 C34.1772127,39.6613446 33.7559481,41.0762615 34.4727449,41.9532146 C35.1895418,42.8301678 39.0083897,42.3498212 39.2948887,42.7869549 C39.5813877,43.2240887 38.242934,44.1510906 37.455533,44.1510906 C36.668132,44.1510906 25.6159332,44.3335858 25.2752354,44.5983563 C24.9345376,44.8631268 24.9045079,53.393034 25.2166416,53.7173749 C25.5287754,54.0417157 27.5363438,54.1010419 27.8715489,53.7890301 C28.206754,53.4770184 30.9428381,49.0275555 31.3947422,49.0275555 C31.8466463,49.0275555 34.0400061,48.7005292 34.3278477,49.142912 C34.6156893,49.5852948 33.297208,51.6260662 33.0706453,52.0224285 C32.9360609,52.2578785 32.3423861,53.8074099 31.8825359,55.2334616 C31.5682629,56.2080603 31.3164952,57.1249855 31.3164952,57.5253583 C31.3164949,58.5115643 32.3261389,59.8507977 33.0706455,59.8507977 C33.8151522,59.8507977 40.9539456,59.7594891 41.3367588,59.9917889 C41.7195721,60.2240887 43.5723538,61.2510663 45.4353916,61.1126385 C47.2984295,60.9742108 48.2752347,60.8089276 48.5860264,60.4003583 C48.8968182,59.9917889 48.609219,56.2043133 48.4587071,55.8826581 C48.3081951,55.5610028 47.560635,54.5286542 47.8306553,53.9670087 C48.1006756,53.4053632 51.4218411,50.9442015 52.1896641,50.7480145 C52.9574871,50.5518275 61.9771409,50.7116376 62.267545,50.4876385 C62.5579491,50.2636395 62.324553,48.870451 62.6448643,48.5163251 C62.9651756,48.1621991 64.775969,47.7792645 65.4775059,47.7792645 C66.1790428,47.7792645 70.4413743,47.3274823 70.9175694,47.3274823 C71.3937645,47.3274823 71.2852452,44.9056073 71.2852452,44.9056073 L74.43942,44.5409833 L74.3091709,42.9877606 C74.3091709,42.9877606 64.2367844,43.3949872 63.7619297,43.1913739 C63.287075,42.9877606 62.1468186,42.4047528 62.3958409,42.12216 C62.6448631,41.8395673 64.817595,41.4302655 64.8175938,41.0000897 C64.8175926,40.5699139 63.4871506,39.3639813 63.0660069,39.3639813 C62.6448631,39.3639813 62.0281662,40.3029462 61.6387608,40.3029462 C61.2493553,40.3029462 51.022427,40.4184247 50.5514805,40.0898114 C50.080534,39.7611981 50.0389065,38.241911 49.4919102,38.0505048 C48.9449139,37.8590985 41.1101986,38.2512271 38.6210606,38.5662518 C36.1319226,38.8812765 35.4152498,39.3639814 34.4727449,39.5050946 Z M35.8042881,54.93112 C35.4432041,54.4179364 37.3340733,50.4130536 37.7386143,50.4130536 C38.1431553,50.4130536 38.1648839,51.7890301 38.6858799,51.7890301 C39.206876,51.7890301 38.9375889,49.4423505 39.337003,49.4423505 C39.736417,49.4423505 41.9961827,48.991911 41.9961827,49.382536 C41.9961826,49.773161 42.0474522,53.1559737 42.0474522,53.6471844 C42.0474521,54.1383952 43.7332432,54.60446 43.3748448,54.9848309 C43.0164463,55.3652019 36.1653721,55.4443036 35.8042881,54.93112 Z" id="fusion-rifle" sketch:type="MSShapeGroup"></path>
        </g>
    </g>
</svg>