<?xml version="1.0" encoding="UTF-8" standalone="no"?>
<svg width="40px" height="24px" viewBox="0 0 40 24" version="1.1" xmlns="http://www.w3.org/2000/svg" xmlns:xlink="http://www.w3.org/1999/xlink" xmlns:sketch="http://www.bohemiancoding.com/sketch/ns">
    <!-- Generator: Sketch 3.4.2 (15855) - http://www.bohemiancoding.com/sketch -->
    <title>handcannon</title>
    <desc>Created with Sketch.</desc>
    <defs></defs>
    <g id="Page-1" stroke="none" stroke-width="1" fill="none" fill-rule="evenodd" sketch:type="MSPage">
        <g id="Artboard-6" sketch:type="MSArtboardGroup" transform="translate(-30.000000, -38.000000)" fill="#000000">
            <path d="M30,61.3509405 L35.6225586,61.4373663 C35.6225586,61.4373663 35.8612813,57.8643915 36.373291,56.2498665 C36.8853007,54.6353415 38.3520508,52.8304327 38.3520508,52.8304327 C38.3520508,52.8304327 39.5102539,54.0897102 40.9321289,54.0897102 C42.3540039,54.0897102 45.4250488,53.799427 46.4477539,52.9092903 C47.470459,52.0191536 48.3916016,50.3821905 48.3916016,50.3821905 C48.3916016,50.3821905 50.940918,51.2503546 53.074707,51.2503546 C55.2084961,51.2503546 68.7739258,50.3821905 68.7739258,50.3821905 C68.7739258,50.3821905 69.4736328,49.3411748 69.4736328,48.3250615 C69.4736328,47.3089483 64.2172432,47.912708 64.2531738,46.9986456 C64.2891045,46.0845832 68.9797363,46.6756476 69.4736328,46.4178351 C69.9675293,46.1600226 69.9216309,38.5987433 69.4736328,38.1021612 C69.0256348,37.6055792 67.8051758,39.0806769 66.8986816,39.0806769 C65.9921875,39.0806769 51.2763672,39.8543586 49.4609375,39.8543585 C47.6455078,39.8543584 40.3554688,38.896839 39.5766602,39.5262335 C38.7978516,40.155628 38.7373047,41.419544 38.7373047,41.419544 C38.7373047,41.419544 37.7551959,42.6423065 36.8354492,43.3868294 C35.9157026,44.1313522 35.2702637,43.8401985 34.6455078,44.7317999 C34.020752,45.6234013 34.1220703,47.7923468 33.7365723,48.6092413 C33.3510742,49.4261358 31.5224609,51.5228156 30.9035645,52.9092901 C30.284668,54.2957647 30,61.3509405 30,61.3509405 Z M40.6721191,49.6880987 C39.7663574,49.6880987 39.6735229,50.8551519 39.6735229,51.5391729 C39.6735229,52.2231939 39.7261453,52.6089441 41.2910156,52.7762335 C42.855886,52.9435229 43.7727461,52.8944793 45.154541,52.1251104 C46.5363359,51.3557416 46.668396,50.2708014 46.3054199,49.837818 C45.9424438,49.4048346 43.1740723,49.4474371 42.4762573,49.6880987 C41.7784424,49.9287604 41.6499023,51.6801032 41.2910156,51.6801032 C40.9321289,51.6801032 41.5778809,49.6880987 40.6721191,49.6880987 Z M52.8615112,41.447193 L52.8615112,42.303211 L54.7678223,42.303211 L54.7678223,41.447193 L52.8615112,41.447193 Z M56.8533936,41.2078131 L56.8533936,42.1170538 L58.5336304,42.1170538 L58.5336304,41.2078131 L56.8533936,41.2078131 Z M60.3900757,40.8675421 L60.3900757,41.8911627 L62.1509399,41.858631 L62.1509399,40.8675421 L60.3900757,40.8675421 Z M64.3161621,40.6636847 L64.3161621,41.5400885 L66.6270752,41.5400885 L66.6270752,40.5325811 L64.3161621,40.6636847 Z" id="handcannon" sketch:type="MSShapeGroup"></path>
        </g>
    </g>
</svg>