<?xml version="1.0" encoding="UTF-8" standalone="no"?>
<svg width="68px" height="19px" viewBox="0 0 68 19" version="1.1" xmlns="http://www.w3.org/2000/svg" xmlns:xlink="http://www.w3.org/1999/xlink" xmlns:sketch="http://www.bohemiancoding.com/sketch/ns">
    <!-- Generator: Sketch 3.4.2 (15855) - http://www.bohemiancoding.com/sketch -->
    <title>machine-gun</title>
    <desc>Created with Sketch.</desc>
    <defs></defs>
    <g id="Page-1" stroke="none" stroke-width="1" fill="none" fill-rule="evenodd" sketch:type="MSPage">
        <g id="Artboard-8" sketch:type="MSArtboardGroup" transform="translate(-16.000000, -41.000000)" fill="#000000">
            <path d="M16.5926616,48.2926025 C17.7108256,47.4293213 25.5879008,46.0821533 26.1279399,46.0821533 C26.667979,46.0821533 29.162852,47.5472412 29.702769,47.5472412 C30.242686,47.5472412 31.9600932,45.550293 32.5178325,45.550293 C33.0755717,45.550293 43.3397319,43.1873779 43.551646,42.9321289 C43.76356,42.6768799 45.3236186,41.4818115 45.7577006,41.4818115 C46.1917827,41.4818115 47.9837749,42.9130859 48.4343364,42.9130859 C48.8848979,42.9130859 58.3178825,42.6634521 60.1046257,42.9130859 C61.8913689,43.1627197 64.0369987,44.0482178 64.9134636,44.0482178 C65.7899284,44.0482178 75.1563835,44.4580078 75.4307976,44.0482178 C75.7052116,43.6384277 75.9437358,41 76.3075053,41 C76.6712749,41 76.8092155,43.8476562 77.1595573,44.0482178 C77.5098991,44.2487793 83.4747391,43.7821045 83.6635818,44.0482178 C83.8524246,44.3143311 83.8848979,45.1271973 83.6635844,45.3387451 C83.6263309,45.3743548 83.547613,45.4006741 83.4424456,45.4213674 C82.9228405,45.5236079 81.7575786,45.4885149 81.7575786,45.7580566 C81.7575786,46.0821533 82.9786479,46.4431152 82.9786479,46.7321777 C82.9786479,47.0212402 81.0793559,49.2772217 80.5285747,49.2772217 C79.9777934,49.2772217 69.4591167,48.8118896 68.3630473,48.8118896 C67.266978,48.8118896 55.4917094,49.0585938 55.4917094,49.8186035 C55.4917094,50.5786133 57.4129741,50.9705811 58.3545024,50.9705811 C59.2960307,50.9705811 62.7146098,51.0812988 62.7146098,52.3679199 C62.7146098,53.654541 59.9276225,54.5899658 58.3049419,54.5899658 C56.6822612,54.5899658 51.807017,54.9006348 51.1788432,54.489624 C50.5506694,54.0786133 50.4746196,53.1083984 50.6469829,52.7381592 C50.8193462,52.3679199 52.525767,51.1251221 51.980601,50.9215088 C51.435435,50.7178955 47.9379985,50.6107178 47.6691997,50.9349365 C47.4004008,51.2591553 48.3044536,57.6816406 47.9868266,57.9139404 C47.6691997,58.1462402 41.3559672,58.1870117 41.0669047,57.8857422 C40.7778422,57.5844727 41.9238383,51.8706055 41.4953715,51.5462646 C41.0669047,51.2219238 37.6684672,52.2434082 37.1189067,52.2434082 C36.5693462,52.2434082 37.1745708,54.2947998 36.917979,54.5092773 C36.6613872,54.7237549 34.254771,56.6174316 34.254771,57.0340576 C34.254771,57.4506836 33.7191264,59.0880127 33.3553569,59.2929688 C32.9915874,59.4979248 28.3549907,59.7373047 27.9586284,59.5151367 C27.5622661,59.2929688 26.5869243,58.1733398 26.098521,58.1733398 C25.6101176,58.1733398 16.7478129,58.7836914 16.4912212,58.4785156 C16.2346294,58.1733398 15.4744975,49.1558838 16.5926616,48.2926025 Z M28.5233256,51.7081299 C29.7718608,51.7081299 32.5817973,52.7497559 32.5817973,53.4321289 C32.5817973,54.114502 30.9946391,56.814209 30.5510356,56.814209 C30.1074321,56.814209 26.9559428,55.5933838 26.9559428,55.1971436 C26.9559428,54.8009033 26.6477153,53.1009521 26.9233501,52.7441406 C27.1989848,52.3873291 27.2747905,51.7081299 28.5233256,51.7081299 Z M53.473521,44.3774414 C53.473521,44.3774414 57.6395976,44.1561279 58.5619609,44.3774414 C59.4843242,44.5987549 60.7778422,45.2885132 60.7778422,45.2885132 C60.7778422,45.2885132 55.3739116,45.4513551 54.8530376,45.2885132 C54.3321635,45.1256714 53.473521,44.3774414 53.473521,44.3774414 Z" id="machine-gun" sketch:type="MSShapeGroup"></path>
        </g>
    </g>
</svg>