<?xml version="1.0" encoding="UTF-8" standalone="no"?>
<svg width="69px" height="25px" viewBox="0 0 69 25" version="1.1" xmlns="http://www.w3.org/2000/svg" xmlns:xlink="http://www.w3.org/1999/xlink" xmlns:sketch="http://www.bohemiancoding.com/sketch/ns">
    <!-- Generator: Sketch 3.4.2 (15855) - http://www.bohemiancoding.com/sketch -->
    <title>pulse-rifle</title>
    <desc>Created with Sketch.</desc>
    <defs></defs>
    <g id="Page-1" stroke="none" stroke-width="1" fill="none" fill-rule="evenodd" sketch:type="MSPage">
        <g id="Pulse-rifle" sketch:type="MSArtboardGroup" transform="translate(-16.000000, -38.000000)" fill="#000000">
            <path d="M40.8920021,39.343286 C41.1831755,39.0719091 42.0305519,39.1849608 42.9209319,39.343286 C43.811312,39.5016111 44.9587737,41.4433836 44.9587737,41.4433836 L68.9485198,41.2429442 L71.3472015,39.7427 L74.0525237,39.699243 C74.0525237,39.699243 74.4443152,37.9585111 75.0276214,38.0007567 C75.6109276,38.0430022 76.2478362,39.6992431 76.2478362,39.6992431 C76.2478362,39.6992431 76.8889495,41.0763183 77.2674896,41.4433837 C77.6460296,41.8104491 79.8631927,41.8030028 80.066806,42.0610595 C80.2704192,42.3191161 79.6179534,44.3869872 79.861972,44.5783935 C80.1059905,44.7697997 84.1083099,44.742578 84.1083099,44.742578 L83.9199554,46.3337645 C83.9199554,46.3337645 78.1102996,47.0600428 71.6993743,47.508935 C64.3307948,48.0248819 56.2187631,48.2809498 56.0697357,48.4249506 C55.7910491,48.6942373 55.8149749,49.6191649 55.8149749,49.6191649 C55.8149749,49.6191649 58.694919,49.9495397 62.1145355,49.9255614 C65.5341519,49.901583 68.9411956,49.5271239 68.9411956,49.5271239 C68.9411956,49.5271239 69.9172849,48.9110705 71.6993743,48.7302485 C73.4814637,48.5494264 75.3847991,48.8733153 75.3847991,48.8733153 C75.3847991,48.8733153 76.1703368,49.7559521 76.2478362,50.4655886 C76.3253356,51.175225 75.7104827,51.855493 75.7104827,51.855493 C75.7104827,51.855493 72.2793304,51.962914 71.3472015,52.2859125 C70.4150726,52.608911 69.6037933,53.3718499 68.6719085,53.6977782 C67.7400237,54.0237064 62.4228859,54.0117435 61.445591,54.0117435 C60.4682961,54.0117435 56.5969582,53.6977777 55.8149757,53.6977777 C55.0329933,53.6977777 45.5704681,59.786889 43.9382659,60.2881102 C42.3060638,60.7893314 38.7909271,60.7170648 38.0205413,60.4262938 C37.2501556,60.1355228 36.2077972,58.8447503 36.2077972,58.2038817 C36.2077972,57.5630131 38.3489105,53.2385497 38.3489105,53.2385497 C38.3489105,53.2385497 39.2267181,51.8166865 38.9104339,51.1411375 C38.5941497,50.4655886 37.573478,49.8535463 36.6947357,49.7879877 C35.8159933,49.7224291 36.0872057,50.2716066 34.7084075,52.1468744 C33.3296093,54.0221422 33.5900976,53.5944528 33.198764,54.9984379 C32.8074303,56.402423 33.4889251,57.8152103 33.4889251,57.8152103 C33.4889251,57.8152103 35.1326019,59.5282236 34.8608733,60.2881107 C34.5891448,61.0479979 30.6943983,63.0310014 28.9397308,62.9284916 C27.1850633,62.8259818 28.2394134,60.5289544 27.7112151,59.4612059 C27.1830169,58.3934574 25.5134612,54.6418709 24.0386077,54.3159428 C22.5637542,53.9900146 18.1506683,55.0578851 17.4499847,54.607202 C16.7493011,54.1565189 15.9438325,52.1713847 16.0030853,48.7302485 C16.062338,45.2891122 17.2792082,42.5439696 17.7229339,42.3025146 C18.1666596,42.0610595 20.6449308,42.0610595 20.8649015,42.3025146 C21.0848722,42.5439696 21.8508636,43.534204 21.8508636,43.534204 L37.742221,43.2737059 C37.742221,43.2737059 39.7137786,42.0296874 40.2313576,41.8499999 C40.7489365,41.6703125 40.6008287,39.6146629 40.8920021,39.343286 Z M40.4641448,58.2811524 C40.6029388,59.1916747 42.7270844,58.8727052 42.7270844,58.8727052 C42.7270844,58.8727052 48.12874,55.9313858 48.9689057,55.1244139 C49.8090713,54.317442 50.1627532,52.8164305 49.6140472,52.2578368 C49.0653411,51.699243 47.2849456,51.4770751 46.8786956,51.699243 C46.4724456,51.921411 45.6819184,53.5765516 45.3507416,53.4621825 C45.0195648,53.3478133 46.0657075,51.6533446 44.2381928,51.8326659 C42.4106781,52.0119872 40.3253509,57.3706302 40.4641448,58.2811524 Z" id="pulse-rifle" sketch:type="MSShapeGroup"></path>
        </g>
    </g>
</svg>