<?xml version="1.0" encoding="UTF-8" standalone="no"?>
<svg width="67px" height="22px" viewBox="0 0 67 22" version="1.1" xmlns="http://www.w3.org/2000/svg" xmlns:xlink="http://www.w3.org/1999/xlink" xmlns:sketch="http://www.bohemiancoding.com/sketch/ns">
    <!-- Generator: Sketch 3.4.2 (15855) - http://www.bohemiancoding.com/sketch -->
    <title>gjallarhorn</title>
    <desc>Created with Sketch.</desc>
    <defs></defs>
    <g id="Page-1" stroke="none" stroke-width="1" fill="none" fill-rule="evenodd" sketch:type="MSPage">
        <g id="Artboard-9" sketch:type="MSArtboardGroup" transform="translate(-16.000000, -39.000000)" fill="#000000">
            <path d="M16.1554592,48.8255947 C16.1554592,48.8255947 47.7127102,47.4239833 47.9922512,47.1972988 C48.2717922,46.9706142 54.3325195,39.5909376 58.1352539,39.2436475 C61.9379883,38.8963575 68.7398109,38.9420118 69.0249672,39.2436475 C69.3101234,39.5452833 68.7168617,44.2951996 69.0249672,44.2951994 C69.3330727,44.2951991 75.5864906,44.5325582 76.0178871,44.2951994 C76.4492836,44.0578405 79.6541164,43.1999844 80.2267482,43.1999843 C80.7993801,43.1999843 83.0010376,43.8354826 83.0010402,44.8291347 C83.0010429,45.8227868 82.0046997,46.5255458 81.4877319,46.525546 C80.9707642,46.5255462 70.9314613,46.5849941 70.6950111,46.7981291 C70.4585609,47.011264 70.205265,47.1564057 70.5187416,47.3829679 C70.8322182,47.6095301 81.8944728,47.0773041 82.5645142,47.5631437 C83.2345555,48.0489833 82.1497219,49.6918049 81.4877346,49.6918056 C80.8257473,49.6918063 79.1344654,50.0255682 78.0911293,50.0255685 C77.0477932,50.0255687 75.2230885,49.7096273 74.9807777,49.8711266 C74.3633414,50.2826458 74.6604652,53.2547939 74.9807777,53.3850426 C75.3010902,53.5152914 79.6225002,53.2661467 79.6225002,53.4432704 C79.6225002,53.6203942 80.0187404,54.9043303 79.7079494,55.2125576 C79.3971584,55.5207848 68.4618557,56.4120198 68.1050441,56.1202724 C67.7482326,55.828525 67.9506252,53.2617522 67.6505764,53.1111171 C67.3505275,52.9604821 66.2084377,53.1496916 65.9805324,53.3850429 C65.7526271,53.6203942 65.2290676,55.3305989 64.7134426,55.3305996 C64.1978176,55.3306002 62.7733791,54.0553303 62.4122951,54.055331 C62.0512111,54.0553317 61.2278469,56.4823342 60.8479641,56.4823329 C60.4680812,56.4823317 58.0131252,56.1905861 57.5707424,56.1905849 C57.1283596,56.1905837 54.7108791,60.0528889 54.1370266,60.2455165 C53.563174,60.4381442 50.1442287,60.2159748 48.8963039,59.8508632 C47.6483791,59.4857516 40.965884,57.2489338 40.965884,56.7197597 C40.965884,56.1905856 40.9564846,53.2751799 41.257632,53.1150234 C41.5587795,52.9548669 48.2642238,52.5278654 48.4435451,52.3675869 C48.6228664,52.2073083 48.6726711,50.7505217 48.3324611,50.5942714 C47.9922512,50.4380212 16.5143459,52.4200774 16.1588771,52.1935146 C15.8034084,51.9669518 16.1554592,48.8255947 16.1554592,48.8255947 Z M50.8014553,56.5399501 C50.4620998,55.8392665 52.005801,53.6253994 52.63251,53.6253994 C53.2592189,53.6253994 54.5101954,55.1205165 54.1491115,55.378329 C53.7880276,55.6361415 52.7846096,56.9679287 52.396426,56.9679287 C52.0082423,56.9679287 51.1408107,57.2406337 50.8014553,56.5399501 Z M59.2056301,53.8316371 C59.2965725,53.8316371 59.7794826,54.282748 59.7794826,54.416415 C59.7794826,54.550082 59.2620266,54.9576747 59.1771877,54.9576747 C59.0923488,54.9576747 58.5462673,54.4090297 58.5462673,54.3024623 C58.5462673,54.195895 59.1146877,53.8316371 59.2056301,53.8316371 Z" id="gjallarhorn" sketch:type="MSShapeGroup"></path>
        </g>
    </g>
</svg>