<?xml version="1.0" encoding="UTF-8" standalone="no"?>
<svg width="56px" height="22px" viewBox="0 0 56 22" version="1.1" xmlns="http://www.w3.org/2000/svg" xmlns:xlink="http://www.w3.org/1999/xlink" xmlns:sketch="http://www.bohemiancoding.com/sketch/ns">
    <!-- Generator: Sketch 3.4.2 (15855) - http://www.bohemiancoding.com/sketch -->
    <title>scout-rifle</title>
    <desc>Created with Sketch.</desc>
    <defs></defs>
    <g id="Page-1" stroke="none" stroke-width="1" fill="none" fill-rule="evenodd" sketch:type="MSPage">
        <g id="SR" sketch:type="MSArtboardGroup" transform="translate(-22.000000, -39.000000)" fill="#000000">
            <path d="M22.2217888,45.8774786 C22.5967161,45.0425031 26.8737663,45.4221563 26.8737663,45.4221563 L27.6257195,46.3528203 L32.1784538,46.2903203 C32.1784538,46.2903203 32.7228098,44.7279251 34.867907,44.0109015 C36.4459099,43.4834356 41.2543816,43.6719121 41.2543816,43.6719121 C41.2543816,43.6719121 41.9558969,43.6441671 42.4114861,43.2091436 C42.8670753,42.7741202 42.8119988,42.1846074 42.8119988,42.1846074 C42.8119988,42.1846074 40.0506462,42.3545294 39.7004265,42.1846075 C39.3502068,42.0146856 39.2285027,40.5181035 39.51903,40.2816533 C39.8095573,40.0452031 40.8174454,40.2286579 41.838488,39.8774785 C42.8595306,39.5262992 42.7514319,39.0522677 43.5168327,39.0041875 C44.2822336,38.9561074 45.241198,39.3379277 45.241198,39.3379277 C45.241198,39.3379277 48.6229118,39.0041875 48.8088249,39.3379277 C48.994738,39.671668 48.954821,41.439002 48.6229118,41.7384405 C48.2910027,42.037879 45.4472527,41.90763 45.4472527,41.90763 L45.6143669,42.8541631 C45.6143669,42.8541631 64.5353024,42.6728447 65.7239861,42.6304083 C66.9126697,42.5879718 68.0928825,42.8541632 68.4792351,42.037879 C68.8655876,41.2215948 68.789904,39.9948283 69.1524529,40.0775517 C69.5150017,40.1602751 69.8388542,42.3545293 69.8388542,42.3545293 C69.8388542,42.3545293 72.5185417,42.4086065 72.9359001,42.8541632 C73.3532585,43.2997198 73.1557488,44.4369268 73.1557488,44.4369268 L77.5770134,44.4369268 L77.5770134,46.2903204 L71.7458366,46.2903204 L71.055529,49.0028448 C71.055529,49.0028448 58.7946025,49.1483002 56.8012566,49.3168097 C54.8079107,49.4853191 53.4013542,50.1713018 53.4013542,50.1713018 L50.76549,53.0133428 L48.8088249,54.2851934 C48.8088249,54.2851934 47.6616077,54.6084356 47.1545277,54.2851934 C46.6474476,53.9619513 46.220324,52.5105352 46.220324,52.5105352 L44.11632,52.2814092 C44.11632,52.2814092 43.8736443,55.5654651 43.5168327,56.608923 C43.1600212,57.6523809 40.5319695,60.9025029 40.5319695,60.9025029 C40.5319695,60.9025029 40.5319695,61.1656857 37.8189568,60.784583 C35.1059441,60.4034804 34.2248169,60.1071891 32.6896843,59.3303594 C31.1545517,58.5535296 31.0522331,57.3603887 31.0522331,57.3603887 C31.0522331,57.3603887 31.8539909,55.9089718 31.8539909,55.2833623 C31.8539909,54.6577528 31.8539909,54.0098028 31.0522331,53.4850225 C30.2504753,52.9602423 27.8459343,52.7952032 27.8459343,52.7952032 L25.4614128,52.7952031 L24.3583856,55.7822628 C24.3583856,55.7822628 22.4262566,56.3022823 22.2217888,55.7822637 C22.017321,55.262245 21.8468615,46.7124541 22.2217888,45.8774786 Z M37.6227898,49.7458867 L37.392321,52.8201056 L41.1867546,52.8201056 C41.1867546,52.8201056 42.9664177,50.7156132 42.5236687,49.9364385 C42.0809197,49.1572637 37.6227898,49.7458867 37.6227898,49.7458867 Z M46.3013786,50.7302617 C45.9057627,50.3888029 47.1618079,49.5545647 47.9189323,49.5598516 C48.6760568,49.5651384 49.7880136,50.4494273 49.3998893,50.7302616 C49.011765,51.011096 46.6969946,51.0717205 46.3013786,50.7302617 Z M35.7731804,45.2421025 L35.5873894,46.5661992 L39.7525505,46.2917851 C39.7525505,46.2917851 42.6655144,45.2961797 42.1929802,45.0790166 C41.720446,44.8618535 35.7731804,45.2421025 35.7731804,45.2421025 Z" id="scout-rifle" sketch:type="MSShapeGroup"></path>
        </g>
    </g>
</svg>