<?xml version="1.0" encoding="UTF-8" standalone="no"?>
<svg width="68px" height="18px" viewBox="0 0 68 18" version="1.1" xmlns="http://www.w3.org/2000/svg" xmlns:xlink="http://www.w3.org/1999/xlink" xmlns:sketch="http://www.bohemiancoding.com/sketch/ns">
    <!-- Generator: Sketch 3.4.2 (15855) - http://www.bohemiancoding.com/sketch -->
    <title>Path 3</title>
    <desc>Created with Sketch.</desc>
    <defs></defs>
    <g id="Page-1" stroke="none" stroke-width="1" fill="none" fill-rule="evenodd" sketch:type="MSPage">
        <g id="SH" sketch:type="MSArtboardGroup" transform="translate(-16.000000, -41.000000)" fill="#000000">
            <path d="M81.7466888,41.0463892 C83.2391205,41.3797632 83.4940033,42.4056421 83.4940033,44.6688257 C83.4940033,46.9320092 83.3760547,47.6800597 82.7586517,48.0682397 C82.1412487,48.4564197 81.6130672,47.7577879 79.2982025,48.0682397 C76.9833378,48.3786915 76.8292084,49.3191152 75.8113852,49.5872827 C74.7935621,49.8554503 69.7249603,49.9432402 67.3555756,49.9432402 L62.0023041,49.9432402 C60.6674652,49.9432402 60.0914154,50.5882597 57.8609467,50.5882597 C55.6304779,50.5882597 49.8635695,49.2164299 48.1329193,49.3191156 C46.4022692,49.4218014 46.3512304,49.7863309 45.3436118,49.9432397 C44.3359933,50.1001486 43.0678558,49.4989038 42.3190765,49.9432397 C41.5702972,50.3875756 41.897942,51.3287205 41.436142,51.8024926 C40.9743419,52.2762647 40.3261566,51.7075219 39.3846283,53.0388207 C38.4431,54.3701196 38.2546234,57.3541284 37.6712494,57.8316674 C37.0878754,58.3092065 35.831988,58.5403588 34.7628021,57.3541284 C33.6936162,56.1678979 33.9321128,55.5363794 34.7628021,54.3940454 C35.5934915,53.2517113 37.1199799,51.8138452 37.1199799,51.1378198 C37.1199799,50.4617944 34.7902671,48.8631616 34.2342377,48.8631616 C33.6782083,48.8631615 31.8836508,49.1627221 30.1832113,49.3191152 C28.4827719,49.4755082 24.6905356,49.6619897 23.7005453,49.9432397 C22.710555,50.2244896 22.0813582,51.2664942 21.283309,52.021853 C20.4852598,52.7772118 20.5203695,53.0388212 19.4734945,53.427371 C18.4266195,53.8159208 17.0064536,54.2677025 16.3868247,52.4676538 C15.7671958,50.667605 16.0700138,46.6520848 16.1019126,46.2757593 C16.1338114,45.8994338 16.2232181,45.769601 17.3724204,45.5916772 C18.5216227,45.4137534 19.173029,46.0264672 20.5203696,45.5916772 C21.8677103,45.1568873 21.2711023,44.320681 22.7271569,44.2669702 C24.1832114,44.2132593 30.5574414,44.056507 31.8836509,44.1370874 C33.2098603,44.2176678 32.0684656,44.8175072 33.1758873,44.8175073 C34.2833091,44.8175073 35.340862,45.2085738 37.9466392,44.4300562 C40.5524163,43.6515385 39.4136598,42.7856134 40.5660241,42.7479272 C41.7183883,42.7102409 41.8988623,43.9696846 42.9334556,44.2669702 C43.9680488,44.5642558 45.8226156,44.3201929 47.0643149,44.0067163 C48.3060143,43.6932397 47.0643151,43.2132592 51.6497642,42.7479272 C56.2352132,42.2825953 74.1262426,43.0328732 77.3587485,42.4056421 C78.3703461,42.209353 80.2888968,40.7207528 81.7466888,41.0463892 Z M19.7569419,48.8811599 C20.0646192,48.357328 20.4726696,48.1193774 20.9118736,48.0740991 C21.3510777,48.0288208 21.7232858,48.1057834 21.7963357,48.6709153 C21.8693856,49.2360472 21.6224951,49.7038666 21.1608188,50 C20.6991425,50.2961334 20.1341353,50.1964675 19.8147754,49.941949 C19.4954156,49.6874306 19.4492646,49.4049917 19.7569419,48.8811599 Z M22.1834556,46.7982772 C21.5713008,46.5812231 24.4738266,46.3028092 25.7376548,46.200564 C27.001483,46.0983187 28.0528125,46.0471819 29.5716392,46.200564 C31.0904658,46.353946 31.1575635,46.5445355 30.8226157,46.7140799 C30.487668,46.8836244 30.5705984,46.9748718 27.9922935,47 C25.4139885,47.0251282 22.7956103,47.0153313 22.1834556,46.7982772 Z" id="Path-3" sketch:type="MSShapeGroup"></path>
        </g>
    </g>
</svg>