<?xml version="1.0" encoding="UTF-8" standalone="no"?>
<svg width="32px" height="22px" viewBox="0 0 32 22" version="1.1" xmlns="http://www.w3.org/2000/svg" xmlns:xlink="http://www.w3.org/1999/xlink" xmlns:sketch="http://www.bohemiancoding.com/sketch/ns">
    <!-- Generator: Sketch 3.4.2 (15855) - http://www.bohemiancoding.com/sketch -->
    <title>sidearm</title>
    <desc>Created with Sketch.</desc>
    <defs></defs>
    <g id="Page-1" stroke="none" stroke-width="1" fill="none" fill-rule="evenodd" sketch:type="MSPage">
        <g id="Artboard-11" sketch:type="MSArtboardGroup" transform="translate(-34.000000, -39.000000)" fill="#000000">
            <path d="M37.6030273,45.1176593 C37.6030273,45.1176593 39.0891113,44.8840168 39.4069824,45.2695148 C39.7248535,45.6550128 39.4008789,46.8837729 39.1335449,47.4543295 C38.8621709,48.0335085 36.7294922,50.0268397 36.1296387,51.5243979 C35.5297852,53.021956 34,55.764143 34,56.9250324 C34,58.0859218 39.973877,60.7563317 41.0322266,60.7563312 C42.0905762,60.7563308 42.7609863,59.5685875 42.7609863,59.1154621 C42.7609863,58.6623366 41.9543457,56.4506676 42.5246582,55.7641437 C43.0949707,55.0776198 45.189209,51.9572589 45.637207,51.9572589 C46.0852051,51.957259 49.0146484,52.4572592 50.6918945,51.9572592 C52.3691406,51.4572592 53.1044922,49.9440753 53.1044922,49.0619953 L53.1044922,46.8237143 C53.1044922,46.8237143 58.6923828,46.7231283 59.1757812,46.3810873 C59.6591797,46.0390463 59.9631348,45.269515 60.5986328,45.269515 C61.2341309,45.269515 64.2734375,45.2695153 64.9038086,45.269515 C65.5341797,45.2695148 65.3466797,39.9181965 64.9038086,39.3156574 C64.4609375,38.7131183 48.1164551,39.1584308 46.2333984,39.1584308 C44.3503418,39.1584308 44.1252441,40.7619465 43.3249512,40.7619464 C42.5246582,40.7619464 42.7773438,39.5971515 41.7893066,39.5971515 C40.8012695,39.5971515 37.6696777,39.4216144 37.6696777,39.9181964 C37.6696777,40.4147785 37.6030273,45.1176593 37.6030273,45.1176593 Z M49.4855957,47.5339191 C51.9633789,47.5339191 51.5717773,48.2268854 51.5717773,48.9788386 C51.5717773,49.7307917 50.4570313,50.4128253 49.4855957,50.4128253 C48.5141602,50.4128253 47.4216309,50.5646808 47.4216309,49.6122882 C47.4216309,48.6598957 47.0078125,47.5339191 49.4855957,47.5339191 Z" id="sidearm" sketch:type="MSShapeGroup"></path>
        </g>
    </g>
</svg>