<?xml version="1.0" encoding="UTF-8" standalone="no"?>
<svg width="69px" height="14px" viewBox="0 0 69 14" version="1.1" xmlns="http://www.w3.org/2000/svg" xmlns:xlink="http://www.w3.org/1999/xlink" xmlns:sketch="http://www.bohemiancoding.com/sketch/ns">
    <!-- Generator: Sketch 3.4.2 (15855) - http://www.bohemiancoding.com/sketch -->
    <title>sniper</title>
    <desc>Created with Sketch.</desc>
    <defs></defs>
    <g id="Page-1" stroke="none" stroke-width="1" fill="none" fill-rule="evenodd" sketch:type="MSPage">
        <g id="SN" sketch:type="MSArtboardGroup" transform="translate(-16.000000, -43.000000)" fill="#000000">
            <path d="M84.1189554,47.540794 C84.1486622,48.1134478 84.1270677,48.6409392 84.0143772,48.7250977 C83.7655979,48.9108887 78.1399265,49.100647 76.8825412,48.998291 C75.625156,48.8959351 74.1603733,48.498291 74.1603733,48.498291 L57.4145237,49.3928223 L56.0602756,51.0859375 C56.0602756,51.0859375 45.5450168,51.6552734 45.0419651,51.7962646 C44.5389133,51.9372559 43.3173557,53.0905762 43.3173557,53.0905762 L38.6156955,53.3300781 C38.6156955,53.3300781 37.9076877,54.5892334 37.5196262,54.9798584 C37.1315647,55.3704834 34.3753334,55.9817389 33.9799533,55.7548828 C33.5845733,55.5280267 32.3039894,53.0905762 32.3039894,53.0905762 L31.9235569,51.4921875 C31.9235569,51.4921875 30.4321022,52.6533203 30.0265842,53.0905762 C29.6210662,53.527832 28.0630226,56.1193237 27.7926369,56.2055054 C27.5222511,56.291687 22.3371311,55.3642578 21.2892795,55.3642578 C20.2414279,55.3642578 19.2919651,55.7548828 18.6222873,55.7548828 C17.9526095,55.7548828 17.003696,55.3947754 16.8884006,55.2504883 C16.7731052,55.1062012 17.0672339,54.5080295 17.106235,54.0582886 C17.1452362,53.6085477 17.2140842,51.494873 17.2140842,51.494873 L16.1313205,50.9112549 C16.1313205,50.9112549 15.8358493,49.786499 16.1313205,49.6298828 C16.4267917,49.4732666 17.9874705,49.5471569 20.241428,49.3928223 C22.4953854,49.2384876 24.7537208,49.1964722 27.5222507,48.8499146 C30.2907806,48.5033569 30.8432346,47.7717285 30.8432346,47.7717285 C30.8432346,47.7717285 30.9659763,46.6550293 30.8432346,46.4824219 C30.7204929,46.3098145 26.2529636,46.7628174 25.9748874,46.59021 C25.6968113,46.4176025 25.6287571,44.8738403 25.7975803,44.7212524 C25.9664035,44.5686646 27.8711277,44.2606812 28.467258,44.2606812 C29.0633884,44.2606812 31.5300022,44.1565936 32.2272068,44.1150513 C32.9244114,44.073509 33.5268283,43.7087402 33.9799533,43.7087402 C34.4330783,43.7087402 34.8122898,43.9175415 34.8122898,43.9175415 C34.8122898,43.9175415 39.6666599,43.5334472 40.1375461,43.4594726 C40.6084323,43.3854981 42.6942904,42.8036941 42.9502903,43.0687256 C43.2062901,43.3337571 43.2002292,46.0218506 42.8188205,46.3098145 C42.4374118,46.5977783 40.9416843,45.8761909 39.7011448,45.8376465 C38.4606052,45.7991021 36.7126194,46.0151367 36.5566135,46.1633301 C36.4006076,46.3115234 36.394321,47.4210205 36.6543308,47.5284424 C36.9143406,47.6358643 39.1448093,47.7385254 40.7580906,47.7717285 C42.3713718,47.8049316 56.0602756,47.3439941 56.0602756,47.3439941 C56.0602756,47.3439941 57.2718235,46.7663574 57.5588108,46.7531738 C57.8457981,46.7399902 58.6861301,47.7717285 58.6861301,47.7717285 L74.1603733,47.1433105 C74.1603733,47.1433105 75.9586811,46.1267445 77.047092,46.041748 C77.9787326,45.9689941 83.645969,45.7467041 83.8569675,45.9697876 C83.9454274,46.063314 84.0311087,46.5300526 84.0824609,47.0543214 C82.6373529,46.9922479 80.5965842,46.9377908 80.5866428,47.1247559 C80.5766006,47.3136172 82.6649867,47.4610692 84.1189554,47.540794 Z M32.5502658,47.1273193 L32.5502658,47.8598633 L34.7140842,47.8598633 L34.6352268,46.8232422 L32.5502658,47.1273193 Z M19.0466037,53.8669434 C18.4622531,53.7205811 20.3923069,52.1140137 20.6283908,52.1140137 C20.8644748,52.1140137 26.8373753,51.9473877 26.8373753,51.9473877 C26.8373753,51.9473877 27.4985077,52.4439697 27.498508,52.8327637 C27.4985084,53.2215576 26.5821263,53.8669434 26.5821263,53.8669434 C26.5821263,53.8669434 19.6309543,54.0133057 19.0466037,53.8669434 Z" id="sniper" sketch:type="MSShapeGroup"></path>
        </g>
    </g>
</svg>