<?xml version="1.0" encoding="UTF-8" standalone="no"?>
<svg width="66px" height="10px" viewBox="0 0 66 10" version="1.1" xmlns="http://www.w3.org/2000/svg" xmlns:xlink="http://www.w3.org/1999/xlink" xmlns:sketch="http://www.bohemiancoding.com/sketch/ns">
    <!-- Generator: Sketch 3.4.2 (15855) - http://www.bohemiancoding.com/sketch -->
    <title>sword</title>
    <desc>Created with Sketch.</desc>
    <defs></defs>
    <g id="Page-1" stroke="none" stroke-width="1" fill="none" fill-rule="evenodd" sketch:type="MSPage">
        <g id="Artboard-10" sketch:type="MSArtboardGroup" transform="translate(-17.000000, -45.000000)" fill="#000000">
            <path d="M17.234805,49.7080078 C17.8537014,49.3469238 29.0099514,49.5969238 29.5690335,49.1516113 C30.1281155,48.7062988 31.9489163,48.4135742 31.9489163,47.9655762 C31.9489163,47.5175781 32.7760647,46.0036621 33.2675198,46.0036621 C33.7589749,46.0036621 34.9059475,48.3642578 35.307803,48.3642578 C35.7096585,48.3642578 38.0541409,45 38.4828518,45 C38.9115628,45 41.6083401,47.4309082 42.1049221,47.4309082 C42.6015042,47.4309082 50.8139065,49.0639648 51.2565335,49.0639648 C51.6991604,49.0639648 52.811221,49.8913574 53.259219,49.8913574 C53.7072171,49.8913574 54.8195217,49.0041504 55.3759182,49.0041504 C55.9323147,49.0041504 82.6881714,48.3642578 82.6881714,48.3642578 C82.6881714,48.3642578 73.6908607,51.0720215 70.226017,51.3769531 C66.7611732,51.6818848 44.3610241,53.4240723 40.4660053,53.0983887 C36.5709866,52.7727051 35.4284085,51.7570801 35.4284085,52.1079102 C35.4284085,52.4587402 34.9943264,54.3356934 34.6305569,54.3356934 C34.2667874,54.3356934 32.5714749,54.5588379 32.0851467,54.1403809 C31.5988186,53.7219238 32.2072171,52.1079102 31.7455471,51.8579102 C31.2838772,51.6079102 29.075137,50.807373 28.6896389,50.807373 C28.3041409,50.807373 17.4162014,51.9465332 17.4162014,51.3769531 C17.4162014,50.807373 16.6159085,50.0690918 17.234805,49.7080078 Z" id="sword" sketch:type="MSShapeGroup"></path>
        </g>
    </g>
</svg>